{
    "asset" : {
        "generator" : "Khronos glTF Blender I/O v3.2.26",
        "version" : "2.0"
    },
    "scene" : 0,
    "scenes" : [
        {
            "name" : "Scene",
            "nodes" : [
                0,
                1,
                2,
                3,
                4,
                5
            ]
        }
    ],
    "nodes" : [
        {
            "mesh" : 0,
            "name" : "Cylinder.001"
        },
        {
            "mesh" : 1,
            "name" : "Cylinder.002"
        },
        {
            "mesh" : 2,
            "name" : "Cylinder.003"
        },
        {
            "mesh" : 3,
            "name" : "Cylinder.004"
        },
        {
            "mesh" : 4,
            "name" : "Cylinder.005"
        },
        {
            "mesh" : 5,
            "name" : "Cylinder.006"
        }
    ],
    "materials" : [
        {
            "doubleSided" : true,
            "emissiveFactor" : [
                1,
                1,
                1
            ],
            "emissiveTexture" : {
                "index" : 0
            },
            "name" : "Material.001",
            "pbrMetallicRoughness" : {
                "baseColorTexture" : {
                    "index" : 1
                },
                "metallicFactor" : 0,
                "roughnessFactor" : 0.5
            }
        },
        {
            "doubleSided" : true,
            "name" : "Material.004",
            "pbrMetallicRoughness" : {
                "baseColorTexture" : {
                    "index" : 2
                },
                "metallicFactor" : 0,
                "roughnessFactor" : 0.5
            }
        }
    ],
    "meshes" : [
        {
            "name" : "Cylinder.003",
            "primitives" : [
                {
                    "attributes" : {
                        "POSITION" : 0,
                        "NORMAL" : 1,
                        "TEXCOORD_0" : 2
                    },
                    "indices" : 3,
                    "material" : 0
                }
            ]
        },
        {
            "name" : "Cylinder.002",
            "primitives" : [
                {
                    "attributes" : {
                        "POSITION" : 4,
                        "NORMAL" : 5,
                        "TEXCOORD_0" : 6
                    },
                    "indices" : 7,
                    "material" : 1
                }
            ]
        },
        {
            "name" : "Cylinder.004",
            "primitives" : [
                {
                    "attributes" : {
                        "POSITION" : 8,
                        "NORMAL" : 9,
                        "TEXCOORD_0" : 10
                    },
                    "indices" : 11,
                    "material" : 1
                }
            ]
        },
        {
            "name" : "Cylinder.005",
            "primitives" : [
                {
                    "attributes" : {
                        "POSITION" : 12,
                        "NORMAL" : 13,
                        "TEXCOORD_0" : 14
                    },
                    "indices" : 15,
                    "material" : 1
                }
            ]
        },
        {
            "name" : "Cylinder.006",
            "primitives" : [
                {
                    "attributes" : {
                        "POSITION" : 16,
                        "NORMAL" : 17,
                        "TEXCOORD_0" : 18
                    },
                    "indices" : 19,
                    "material" : 1
                }
            ]
        },
        {
            "name" : "Cylinder.007",
            "primitives" : [
                {
                    "attributes" : {
                        "POSITION" : 20,
                        "NORMAL" : 21,
                        "TEXCOORD_0" : 22
                    },
                    "indices" : 23,
                    "material" : 1
                }
            ]
        }
    ],
    "textures" : [
        {
            "sampler" : 0,
            "source" : 0
        },
        {
            "sampler" : 0,
            "source" : 0
        },
        {
            "sampler" : 0,
            "source" : 0
        }
    ],
    "images" : [
        {
            "bufferView" : 4,
            "mimeType" : "image/png",
            "name" : "Untitled"
        }
    ],
    "accessors" : [
        {
            "bufferView" : 0,
            "componentType" : 5126,
            "count" : 196,
            "max" : [
                1.5154304504394531,
                1.0053950548171997,
                0.8851286172866821
            ],
            "min" : [
                -1.5154304504394531,
                0.2421126663684845,
                -0.9906691312789917
            ],
            "type" : "VEC3"
        },
        {
            "bufferView" : 1,
            "componentType" : 5126,
            "count" : 196,
            "type" : "VEC3"
        },
        {
            "bufferView" : 2,
            "componentType" : 5126,
            "count" : 196,
            "type" : "VEC2"
        },
        {
            "bufferView" : 3,
            "componentType" : 5123,
            "count" : 336,
            "type" : "SCALAR"
        },
        {
            "bufferView" : 5,
            "componentType" : 5126,
            "count" : 90,
            "max" : [
                0.895293653011322,
                1.1292848587036133,
                0.8942874670028687
            ],
            "min" : [
                -0.895293653011322,
                0.3314760625362396,
                -0.9481621384620667
            ],
            "type" : "VEC3"
        },
        {
            "bufferView" : 6,
            "componentType" : 5126,
            "count" : 90,
            "type" : "VEC3"
        },
        {
            "bufferView" : 7,
            "componentType" : 5126,
            "count" : 90,
            "type" : "VEC2"
        },
        {
            "bufferView" : 8,
            "componentType" : 5123,
            "count" : 228,
            "type" : "SCALAR"
        },
        {
            "bufferView" : 9,
            "componentType" : 5126,
            "count" : 120,
            "max" : [
                0.6249997019767761,
                0.9109359979629517,
                0.625
            ],
            "min" : [
                -0.6250003576278687,
                -2.384185791015625e-07,
                -0.625
            ],
            "type" : "VEC3"
        },
        {
            "bufferView" : 10,
            "componentType" : 5126,
            "count" : 120,
            "type" : "VEC3"
        },
        {
            "bufferView" : 11,
            "componentType" : 5126,
            "count" : 120,
            "type" : "VEC2"
        },
        {
            "bufferView" : 12,
            "componentType" : 5123,
            "count" : 360,
            "type" : "SCALAR"
        },
        {
            "bufferView" : 13,
            "componentType" : 5126,
            "count" : 138,
            "max" : [
                1.6543291807174683,
                1.1216574907302856,
                0.5617944002151489
            ],
            "min" : [
                -1.6543291807174683,
                0.2421126663684845,
                -0.6711774468421936
            ],
            "type" : "VEC3"
        },
        {
            "bufferView" : 14,
            "componentType" : 5126,
            "count" : 138,
            "type" : "VEC3"
        },
        {
            "bufferView" : 15,
            "componentType" : 5126,
            "count" : 138,
            "type" : "VEC2"
        },
        {
            "bufferView" : 16,
            "componentType" : 5123,
            "count" : 240,
            "type" : "SCALAR"
        },
        {
            "bufferView" : 17,
            "componentType" : 5126,
            "count" : 112,
            "max" : [
                1.7597965002059937,
                0.24318784475326538,
                0.6672617197036743
            ],
            "min" : [
                -1.7597965002059937,
                -0.0021067261695861816,
                -0.776644766330719
            ],
            "type" : "VEC3"
        },
        {
            "bufferView" : 18,
            "componentType" : 5126,
            "count" : 112,
            "type" : "VEC3"
        },
        {
            "bufferView" : 19,
            "componentType" : 5126,
            "count" : 112,
            "type" : "VEC2"
        },
        {
            "bufferView" : 20,
            "componentType" : 5123,
            "count" : 216,
            "type" : "SCALAR"
        },
        {
            "bufferView" : 21,
            "componentType" : 5126,
            "count" : 236,
            "max" : [
                1.5154304504394531,
                0.2421126663684845,
                0.601794421672821
            ],
            "min" : [
                -0.5927014350891113,
                0.004757404327392578,
                -0.5877230763435364
            ],
            "type" : "VEC3"
        },
        {
            "bufferView" : 22,
            "componentType" : 5126,
            "count" : 236,
            "type" : "VEC3"
        },
        {
            "bufferView" : 23,
            "componentType" : 5126,
            "count" : 236,
            "type" : "VEC2"
        },
        {
            "bufferView" : 24,
            "componentType" : 5123,
            "count" : 249,
            "type" : "SCALAR"
        }
    ],
    "bufferViews" : [
        {
            "buffer" : 0,
            "byteLength" : 2352,
            "byteOffset" : 0
        },
        {
            "buffer" : 0,
            "byteLength" : 2352,
            "byteOffset" : 2352
        },
        {
            "buffer" : 0,
            "byteLength" : 1568,
            "byteOffset" : 4704
        },
        {
            "buffer" : 0,
            "byteLength" : 672,
            "byteOffset" : 6272
        },
        {
            "buffer" : 0,
            "byteLength" : 126,
            "byteOffset" : 6944
        },
        {
            "buffer" : 0,
            "byteLength" : 1080,
            "byteOffset" : 7072
        },
        {
            "buffer" : 0,
            "byteLength" : 1080,
            "byteOffset" : 8152
        },
        {
            "buffer" : 0,
            "byteLength" : 720,
            "byteOffset" : 9232
        },
        {
            "buffer" : 0,
            "byteLength" : 456,
            "byteOffset" : 9952
        },
        {
            "buffer" : 0,
            "byteLength" : 1440,
            "byteOffset" : 10408
        },
        {
            "buffer" : 0,
            "byteLength" : 1440,
            "byteOffset" : 11848
        },
        {
            "buffer" : 0,
            "byteLength" : 960,
            "byteOffset" : 13288
        },
        {
            "buffer" : 0,
            "byteLength" : 720,
            "byteOffset" : 14248
        },
        {
            "buffer" : 0,
            "byteLength" : 1656,
            "byteOffset" : 14968
        },
        {
            "buffer" : 0,
            "byteLength" : 1656,
            "byteOffset" : 16624
        },
        {
            "buffer" : 0,
            "byteLength" : 1104,
            "byteOffset" : 18280
        },
        {
            "buffer" : 0,
            "byteLength" : 480,
            "byteOffset" : 19384
        },
        {
            "buffer" : 0,
            "byteLength" : 1344,
            "byteOffset" : 19864
        },
        {
            "buffer" : 0,
            "byteLength" : 1344,
            "byteOffset" : 21208
        },
        {
            "buffer" : 0,
            "byteLength" : 896,
            "byteOffset" : 22552
        },
        {
            "buffer" : 0,
            "byteLength" : 432,
            "byteOffset" : 23448
        },
        {
            "buffer" : 0,
            "byteLength" : 2832,
            "byteOffset" : 23880
        },
        {
            "buffer" : 0,
            "byteLength" : 2832,
            "byteOffset" : 26712
        },
        {
            "buffer" : 0,
            "byteLength" : 1888,
            "byteOffset" : 29544
        },
        {
            "buffer" : 0,
            "byteLength" : 498,
            "byteOffset" : 31432
        }
    ],
    "samplers" : [
        {
            "magFilter" : 9729,
            "minFilter" : 9987
        }
    ],
    "buffers" : [
        {
            "byteLength" : 31932,
            "uri" : "data:application/octet-stream;base64,"
        }
    ]
}
