{
    "asset" : {
        "generator" : "Khronos glTF Blender I/O v3.2.26",
        "version" : "2.0"
    },
    "scene" : 0,
    "scenes" : [
        {
            "name" : "Scene",
            "nodes" : [
                0,
                1
            ]
        }
    ],
    "nodes" : [
        {
            "mesh" : 0,
            "name" : "top_0"
        },
        {
            "mesh" : 1,
            "name" : "collider"
        }
    ],
    "materials" : [
        {
            "doubleSided" : true,
            "name" : "Material.002",
            "pbrMetallicRoughness" : {
                "baseColorFactor" : [
                    0.21029026806354523,
                    0.21403397619724274,
                    0.19503434002399445,
                    1
                ],
                "metallicFactor" : 0,
                "roughnessFactor" : 0.7322834730148315
            }
        },
        {
            "doubleSided" : true,
            "name" : "Material.003",
            "pbrMetallicRoughness" : {
                "baseColorFactor" : [
                    0.2738315463066101,
                    0.2738315463066101,
                    0.2738315463066101,
                    1
                ],
                "metallicFactor" : 0.8976377844810486,
                "roughnessFactor" : 0.3976377844810486
            }
        },
        {
            "doubleSided" : true,
            "name" : "Material",
            "pbrMetallicRoughness" : {
                "baseColorFactor" : [
                    0,
                    0,
                    0,
                    1
                ],
                "metallicFactor" : 0,
                "roughnessFactor" : 0.7755905389785767
            }
        },
        {
            "doubleSided" : true,
            "name" : "Material.005",
            "pbrMetallicRoughness" : {
                "baseColorFactor" : [
                    0.3588370978832245,
                    0.3588370978832245,
                    0.3588370978832245,
                    1
                ],
                "metallicFactor" : 0.5275590419769287,
                "roughnessFactor" : 0.5
            }
        },
        {
            "doubleSided" : true,
            "name" : "Material.006",
            "pbrMetallicRoughness" : {
                "baseColorFactor" : [
                    0.0668049231171608,
                    0.0668049231171608,
                    0.0668049231171608,
                    1
                ],
                "metallicFactor" : 0,
                "roughnessFactor" : 0.6181102395057678
            }
        },
        {
            "doubleSided" : true,
            "emissiveFactor" : [
                0.050276633352041245,
                1,
                1
            ],
            "name" : "Material.007",
            "pbrMetallicRoughness" : {
                "baseColorFactor" : [
                    0,
                    0,
                    0,
                    1
                ],
                "metallicFactor" : 0,
                "roughnessFactor" : 0.5
            }
        }
    ],
    "meshes" : [
        {
            "name" : "Cylinder.002",
            "primitives" : [
                {
                    "attributes" : {
                        "POSITION" : 0,
                        "NORMAL" : 1,
                        "TEXCOORD_0" : 2
                    },
                    "indices" : 3,
                    "material" : 0
                },
                {
                    "attributes" : {
                        "POSITION" : 4,
                        "NORMAL" : 5,
                        "TEXCOORD_0" : 6
                    },
                    "indices" : 7,
                    "material" : 1
                },
                {
                    "attributes" : {
                        "POSITION" : 8,
                        "NORMAL" : 9,
                        "TEXCOORD_0" : 10
                    },
                    "indices" : 11,
                    "material" : 2
                },
                {
                    "attributes" : {
                        "POSITION" : 12,
                        "NORMAL" : 13,
                        "TEXCOORD_0" : 14
                    },
                    "indices" : 15,
                    "material" : 3
                },
                {
                    "attributes" : {
                        "POSITION" : 16,
                        "NORMAL" : 17,
                        "TEXCOORD_0" : 18
                    },
                    "indices" : 19,
                    "material" : 4
                },
                {
                    "attributes" : {
                        "POSITION" : 20,
                        "NORMAL" : 21,
                        "TEXCOORD_0" : 22
                    },
                    "indices" : 23,
                    "material" : 5
                }
            ]
        },
        {
            "name" : "collider",
            "primitives" : [
                {
                    "attributes" : {
                        "POSITION" : 24,
                        "NORMAL" : 25,
                        "TEXCOORD_0" : 26
                    },
                    "indices" : 27
                }
            ]
        }
    ],
    "accessors" : [
        {
            "bufferView" : 0,
            "componentType" : 5126,
            "count" : 90,
            "max" : [
                0.895293653011322,
                1.1292848587036133,
                0.8942874670028687
            ],
            "min" : [
                -0.895293653011322,
                0.3314760625362396,
                -0.9481621384620667
            ],
            "type" : "VEC3"
        },
        {
            "bufferView" : 1,
            "componentType" : 5126,
            "count" : 90,
            "type" : "VEC3"
        },
        {
            "bufferView" : 2,
            "componentType" : 5126,
            "count" : 90,
            "type" : "VEC2"
        },
        {
            "bufferView" : 3,
            "componentType" : 5123,
            "count" : 228,
            "type" : "SCALAR"
        },
        {
            "bufferView" : 4,
            "componentType" : 5126,
            "count" : 193,
            "max" : [
                1.5154304504394531,
                0.2421126663684845,
                0.601794421672821
            ],
            "min" : [
                -0.5927014350891113,
                0.004757404327392578,
                -0.5877230763435364
            ],
            "type" : "VEC3"
        },
        {
            "bufferView" : 5,
            "componentType" : 5126,
            "count" : 193,
            "type" : "VEC3"
        },
        {
            "bufferView" : 6,
            "componentType" : 5126,
            "count" : 193,
            "type" : "VEC2"
        },
        {
            "bufferView" : 7,
            "componentType" : 5123,
            "count" : 249,
            "type" : "SCALAR"
        },
        {
            "bufferView" : 8,
            "componentType" : 5126,
            "count" : 158,
            "max" : [
                1.6543291807174683,
                1.1216574907302856,
                0.5617944002151489
            ],
            "min" : [
                -1.6543291807174683,
                0.2421126663684845,
                -0.6711774468421936
            ],
            "type" : "VEC3"
        },
        {
            "bufferView" : 9,
            "componentType" : 5126,
            "count" : 158,
            "type" : "VEC3"
        },
        {
            "bufferView" : 10,
            "componentType" : 5126,
            "count" : 158,
            "type" : "VEC2"
        },
        {
            "bufferView" : 11,
            "componentType" : 5123,
            "count" : 240,
            "type" : "SCALAR"
        },
        {
            "bufferView" : 12,
            "componentType" : 5126,
            "count" : 120,
            "max" : [
                0.6249997019767761,
                0.9109359979629517,
                0.625
            ],
            "min" : [
                -0.6250003576278687,
                -2.384185791015625e-07,
                -0.625
            ],
            "type" : "VEC3"
        },
        {
            "bufferView" : 13,
            "componentType" : 5126,
            "count" : 120,
            "type" : "VEC3"
        },
        {
            "bufferView" : 14,
            "componentType" : 5126,
            "count" : 120,
            "type" : "VEC2"
        },
        {
            "bufferView" : 15,
            "componentType" : 5123,
            "count" : 360,
            "type" : "SCALAR"
        },
        {
            "bufferView" : 16,
            "componentType" : 5126,
            "count" : 112,
            "max" : [
                1.7597965002059937,
                0.24318784475326538,
                0.6672617197036743
            ],
            "min" : [
                -1.7597965002059937,
                -0.0021067261695861816,
                -0.776644766330719
            ],
            "type" : "VEC3"
        },
        {
            "bufferView" : 17,
            "componentType" : 5126,
            "count" : 112,
            "type" : "VEC3"
        },
        {
            "bufferView" : 18,
            "componentType" : 5126,
            "count" : 112,
            "type" : "VEC2"
        },
        {
            "bufferView" : 19,
            "componentType" : 5123,
            "count" : 216,
            "type" : "SCALAR"
        },
        {
            "bufferView" : 20,
            "componentType" : 5126,
            "count" : 220,
            "max" : [
                1.5154304504394531,
                1.0053950548171997,
                0.8851286172866821
            ],
            "min" : [
                -1.5154304504394531,
                0.2421126663684845,
                -0.9906691312789917
            ],
            "type" : "VEC3"
        },
        {
            "bufferView" : 21,
            "componentType" : 5126,
            "count" : 220,
            "type" : "VEC3"
        },
        {
            "bufferView" : 22,
            "componentType" : 5126,
            "count" : 220,
            "type" : "VEC2"
        },
        {
            "bufferView" : 23,
            "componentType" : 5123,
            "count" : 336,
            "type" : "SCALAR"
        },
        {
            "bufferView" : 24,
            "componentType" : 5126,
            "count" : 96,
            "max" : [
                0.8952795267105103,
                1.129278302192688,
                0.8424130082130432
            ],
            "min" : [
                -0.8952795267105103,
                0,
                -0.9481459259986877
            ],
            "type" : "VEC3"
        },
        {
            "bufferView" : 25,
            "componentType" : 5126,
            "count" : 96,
            "type" : "VEC3"
        },
        {
            "bufferView" : 26,
            "componentType" : 5126,
            "count" : 96,
            "type" : "VEC2"
        },
        {
            "bufferView" : 27,
            "componentType" : 5123,
            "count" : 180,
            "type" : "SCALAR"
        }
    ],
    "bufferViews" : [
        {
            "buffer" : 0,
            "byteLength" : 1080,
            "byteOffset" : 0
        },
        {
            "buffer" : 0,
            "byteLength" : 1080,
            "byteOffset" : 1080
        },
        {
            "buffer" : 0,
            "byteLength" : 720,
            "byteOffset" : 2160
        },
        {
            "buffer" : 0,
            "byteLength" : 456,
            "byteOffset" : 2880
        },
        {
            "buffer" : 0,
            "byteLength" : 2316,
            "byteOffset" : 3336
        },
        {
            "buffer" : 0,
            "byteLength" : 2316,
            "byteOffset" : 5652
        },
        {
            "buffer" : 0,
            "byteLength" : 1544,
            "byteOffset" : 7968
        },
        {
            "buffer" : 0,
            "byteLength" : 498,
            "byteOffset" : 9512
        },
        {
            "buffer" : 0,
            "byteLength" : 1896,
            "byteOffset" : 10012
        },
        {
            "buffer" : 0,
            "byteLength" : 1896,
            "byteOffset" : 11908
        },
        {
            "buffer" : 0,
            "byteLength" : 1264,
            "byteOffset" : 13804
        },
        {
            "buffer" : 0,
            "byteLength" : 480,
            "byteOffset" : 15068
        },
        {
            "buffer" : 0,
            "byteLength" : 1440,
            "byteOffset" : 15548
        },
        {
            "buffer" : 0,
            "byteLength" : 1440,
            "byteOffset" : 16988
        },
        {
            "buffer" : 0,
            "byteLength" : 960,
            "byteOffset" : 18428
        },
        {
            "buffer" : 0,
            "byteLength" : 720,
            "byteOffset" : 19388
        },
        {
            "buffer" : 0,
            "byteLength" : 1344,
            "byteOffset" : 20108
        },
        {
            "buffer" : 0,
            "byteLength" : 1344,
            "byteOffset" : 21452
        },
        {
            "buffer" : 0,
            "byteLength" : 896,
            "byteOffset" : 22796
        },
        {
            "buffer" : 0,
            "byteLength" : 432,
            "byteOffset" : 23692
        },
        {
            "buffer" : 0,
            "byteLength" : 2640,
            "byteOffset" : 24124
        },
        {
            "buffer" : 0,
            "byteLength" : 2640,
            "byteOffset" : 26764
        },
        {
            "buffer" : 0,
            "byteLength" : 1760,
            "byteOffset" : 29404
        },
        {
            "buffer" : 0,
            "byteLength" : 672,
            "byteOffset" : 31164
        },
        {
            "buffer" : 0,
            "byteLength" : 1152,
            "byteOffset" : 31836
        },
        {
            "buffer" : 0,
            "byteLength" : 1152,
            "byteOffset" : 32988
        },
        {
            "buffer" : 0,
            "byteLength" : 768,
            "byteOffset" : 34140
        },
        {
            "buffer" : 0,
            "byteLength" : 360,
            "byteOffset" : 34908
        }
    ],
    "buffers" : [
        {
            "byteLength" : 35268,
            "uri" : "data:application/octet-stream;base64,"
        }
    ]
}
