{
    "asset" : {
        "generator" : "Khronos glTF Blender I/O v3.2.26",
        "version" : "2.0"
    },
    "scene" : 0,
    "scenes" : [
        {
            "name" : "Scene",
            "nodes" : [
                0,
                1,
                2
            ]
        }
    ],
    "nodes" : [
        {
            "mesh" : 0,
            "name" : "Cylinder"
        },
        {
            "mesh" : 1,
            "name" : "Cylinder.001"
        },
        {
            "mesh" : 2,
            "name" : "Cylinder.002"
        }
    ],
    "materials" : [
        {
            "doubleSided" : true,
            "name" : "Material.002",
            "pbrMetallicRoughness" : {
                "baseColorFactor" : [
                    0.21029026806354523,
                    0.21403397619724274,
                    0.19503434002399445,
                    1
                ],
                "metallicFactor" : 0,
                "roughnessFactor" : 0.7322834730148315
            }
        },
        {
            "doubleSided" : true,
            "name" : "Material.003",
            "pbrMetallicRoughness" : {
                "baseColorFactor" : [
                    0.2738315463066101,
                    0.2738315463066101,
                    0.2738315463066101,
                    1
                ],
                "metallicFactor" : 0.8976377844810486,
                "roughnessFactor" : 0.6338582634925842
            }
        },
        {
            "doubleSided" : true,
            "name" : "Material",
            "pbrMetallicRoughness" : {
                "baseColorFactor" : [
                    0,
                    0,
                    0,
                    1
                ],
                "metallicFactor" : 0,
                "roughnessFactor" : 0.7755905389785767
            }
        },
        {
            "doubleSided" : true,
            "emissiveFactor" : [
                0,
                1,
                1
            ],
            "name" : "Material.001",
            "pbrMetallicRoughness" : {
                "baseColorFactor" : [
                    0,
                    0,
                    0,
                    1
                ],
                "metallicFactor" : 0,
                "roughnessFactor" : 0.5
            }
        }
    ],
    "meshes" : [
        {
            "name" : "Cylinder.001",
            "primitives" : [
                {
                    "attributes" : {
                        "POSITION" : 0,
                        "NORMAL" : 1,
                        "TEXCOORD_0" : 2
                    },
                    "indices" : 3,
                    "material" : 0
                },
                {
                    "attributes" : {
                        "POSITION" : 4,
                        "NORMAL" : 5,
                        "TEXCOORD_0" : 6
                    },
                    "indices" : 7,
                    "material" : 1
                },
                {
                    "attributes" : {
                        "POSITION" : 8,
                        "NORMAL" : 9,
                        "TEXCOORD_0" : 10
                    },
                    "indices" : 11,
                    "material" : 2
                }
            ]
        },
        {
            "name" : "Cylinder.003",
            "primitives" : [
                {
                    "attributes" : {
                        "POSITION" : 12,
                        "NORMAL" : 13,
                        "TEXCOORD_0" : 14
                    },
                    "indices" : 15,
                    "material" : 3
                }
            ]
        },
        {
            "name" : "Cylinder",
            "primitives" : [
                {
                    "attributes" : {
                        "POSITION" : 16,
                        "NORMAL" : 17,
                        "TEXCOORD_0" : 18
                    },
                    "indices" : 19,
                    "material" : 3
                }
            ]
        }
    ],
    "accessors" : [
        {
            "bufferView" : 0,
            "componentType" : 5126,
            "count" : 232,
            "max" : [
                0.895293653011322,
                1.1292848587036133,
                0.8942874670028687
            ],
            "min" : [
                -0.895293653011322,
                -2.384185791015625e-07,
                -0.9481621384620667
            ],
            "type" : "VEC3"
        },
        {
            "bufferView" : 1,
            "componentType" : 5126,
            "count" : 232,
            "type" : "VEC3"
        },
        {
            "bufferView" : 2,
            "componentType" : 5126,
            "count" : 232,
            "type" : "VEC2"
        },
        {
            "bufferView" : 3,
            "componentType" : 5123,
            "count" : 612,
            "type" : "SCALAR"
        },
        {
            "bufferView" : 4,
            "componentType" : 5126,
            "count" : 344,
            "max" : [
                1.7597965002059937,
                0.24318784475326538,
                0.6672617197036743
            ],
            "min" : [
                -1.7597965002059937,
                -0.0021067261695861816,
                -0.776644766330719
            ],
            "type" : "VEC3"
        },
        {
            "bufferView" : 5,
            "componentType" : 5126,
            "count" : 344,
            "type" : "VEC3"
        },
        {
            "bufferView" : 6,
            "componentType" : 5126,
            "count" : 344,
            "type" : "VEC2"
        },
        {
            "bufferView" : 7,
            "componentType" : 5123,
            "count" : 459,
            "type" : "SCALAR"
        },
        {
            "bufferView" : 8,
            "componentType" : 5126,
            "count" : 127,
            "max" : [
                1.6543291807174683,
                1.1216574907302856,
                0.601794421672821
            ],
            "min" : [
                -1.6543291807174683,
                0.2421126663684845,
                -0.6711774468421936
            ],
            "type" : "VEC3"
        },
        {
            "bufferView" : 9,
            "componentType" : 5126,
            "count" : 127,
            "type" : "VEC3"
        },
        {
            "bufferView" : 10,
            "componentType" : 5126,
            "count" : 127,
            "type" : "VEC2"
        },
        {
            "bufferView" : 11,
            "componentType" : 5123,
            "count" : 222,
            "type" : "SCALAR"
        },
        {
            "bufferView" : 12,
            "componentType" : 5126,
            "count" : 92,
            "max" : [
                1.5154304504394531,
                1.0053950548171997,
                0.601794421672821
            ],
            "min" : [
                -1.5154304504394531,
                0.2421126663684845,
                -0.7106711268424988
            ],
            "type" : "VEC3"
        },
        {
            "bufferView" : 13,
            "componentType" : 5126,
            "count" : 92,
            "type" : "VEC3"
        },
        {
            "bufferView" : 14,
            "componentType" : 5126,
            "count" : 92,
            "type" : "VEC2"
        },
        {
            "bufferView" : 15,
            "componentType" : 5123,
            "count" : 168,
            "type" : "SCALAR"
        },
        {
            "bufferView" : 16,
            "componentType" : 5126,
            "count" : 108,
            "max" : [
                0.7366524338722229,
                0.9717777967453003,
                0.8851286172866821
            ],
            "min" : [
                -0.7366524338722229,
                0.8924418091773987,
                -0.9906691312789917
            ],
            "type" : "VEC3"
        },
        {
            "bufferView" : 17,
            "componentType" : 5126,
            "count" : 108,
            "type" : "VEC3"
        },
        {
            "bufferView" : 18,
            "componentType" : 5126,
            "count" : 108,
            "type" : "VEC2"
        },
        {
            "bufferView" : 19,
            "componentType" : 5123,
            "count" : 168,
            "type" : "SCALAR"
        }
    ],
    "bufferViews" : [
        {
            "buffer" : 0,
            "byteLength" : 2784,
            "byteOffset" : 0
        },
        {
            "buffer" : 0,
            "byteLength" : 2784,
            "byteOffset" : 2784
        },
        {
            "buffer" : 0,
            "byteLength" : 1856,
            "byteOffset" : 5568
        },
        {
            "buffer" : 0,
            "byteLength" : 1224,
            "byteOffset" : 7424
        },
        {
            "buffer" : 0,
            "byteLength" : 4128,
            "byteOffset" : 8648
        },
        {
            "buffer" : 0,
            "byteLength" : 4128,
            "byteOffset" : 12776
        },
        {
            "buffer" : 0,
            "byteLength" : 2752,
            "byteOffset" : 16904
        },
        {
            "buffer" : 0,
            "byteLength" : 918,
            "byteOffset" : 19656
        },
        {
            "buffer" : 0,
            "byteLength" : 1524,
            "byteOffset" : 20576
        },
        {
            "buffer" : 0,
            "byteLength" : 1524,
            "byteOffset" : 22100
        },
        {
            "buffer" : 0,
            "byteLength" : 1016,
            "byteOffset" : 23624
        },
        {
            "buffer" : 0,
            "byteLength" : 444,
            "byteOffset" : 24640
        },
        {
            "buffer" : 0,
            "byteLength" : 1104,
            "byteOffset" : 25084
        },
        {
            "buffer" : 0,
            "byteLength" : 1104,
            "byteOffset" : 26188
        },
        {
            "buffer" : 0,
            "byteLength" : 736,
            "byteOffset" : 27292
        },
        {
            "buffer" : 0,
            "byteLength" : 336,
            "byteOffset" : 28028
        },
        {
            "buffer" : 0,
            "byteLength" : 1296,
            "byteOffset" : 28364
        },
        {
            "buffer" : 0,
            "byteLength" : 1296,
            "byteOffset" : 29660
        },
        {
            "buffer" : 0,
            "byteLength" : 864,
            "byteOffset" : 30956
        },
        {
            "buffer" : 0,
            "byteLength" : 336,
            "byteOffset" : 31820
        }
    ],
    "buffers" : [
        {
            "byteLength" : 32156,
            "uri" : "data:application/octet-stream;base64,"
        }
    ]
}
