{
    "asset" : {
        "generator" : "Khronos glTF Blender I/O v3.2.26",
        "version" : "2.0"
    },
    "scene" : 0,
    "scenes" : [
        {
            "name" : "Scene",
            "nodes" : [
                0
            ]
        }
    ],
    "nodes" : [
        {
            "mesh" : 0,
            "name" : "Cylinder"
        }
    ],
    "materials" : [
        {
            "doubleSided" : true,
            "name" : "Material.002",
            "pbrMetallicRoughness" : {
                "baseColorFactor" : [
                    0.21029026806354523,
                    0.21403397619724274,
                    0.19503434002399445,
                    1
                ],
                "metallicFactor" : 0
            }
        },
        {
            "doubleSided" : true,
            "name" : "Material.003",
            "pbrMetallicRoughness" : {
                "baseColorFactor" : [
                    0.2738315463066101,
                    0.2738315463066101,
                    0.2738315463066101,
                    1
                ],
                "metallicFactor" : 0.8976377844810486,
                "roughnessFactor" : 0.6338582634925842
            }
        },
        {
            "doubleSided" : true,
            "name" : "Material",
            "pbrMetallicRoughness" : {
                "baseColorFactor" : [
                    0,
                    0,
                    0,
                    1
                ],
                "metallicFactor" : 0,
                "roughnessFactor" : 0.7755905389785767
            }
        }
    ],
    "meshes" : [
        {
            "name" : "Cylinder.001",
            "primitives" : [
                {
                    "attributes" : {
                        "POSITION" : 0,
                        "NORMAL" : 1,
                        "TEXCOORD_0" : 2
                    },
                    "indices" : 3,
                    "material" : 0
                },
                {
                    "attributes" : {
                        "POSITION" : 4,
                        "NORMAL" : 5,
                        "TEXCOORD_0" : 6
                    },
                    "indices" : 7,
                    "material" : 1
                },
                {
                    "attributes" : {
                        "POSITION" : 8,
                        "NORMAL" : 9,
                        "TEXCOORD_0" : 10
                    },
                    "indices" : 11,
                    "material" : 2
                }
            ]
        }
    ],
    "accessors" : [
        {
            "bufferView" : 0,
            "componentType" : 5126,
            "count" : 232,
            "max" : [
                0.895293653011322,
                1.1292848587036133,
                0.8942874670028687
            ],
            "min" : [
                -0.895293653011322,
                -2.384185791015625e-07,
                -0.9481621384620667
            ],
            "type" : "VEC3"
        },
        {
            "bufferView" : 1,
            "componentType" : 5126,
            "count" : 232,
            "type" : "VEC3"
        },
        {
            "bufferView" : 2,
            "componentType" : 5126,
            "count" : 232,
            "type" : "VEC2"
        },
        {
            "bufferView" : 3,
            "componentType" : 5123,
            "count" : 612,
            "type" : "SCALAR"
        },
        {
            "bufferView" : 4,
            "componentType" : 5126,
            "count" : 344,
            "max" : [
                1.7597965002059937,
                0.24318784475326538,
                0.6672617197036743
            ],
            "min" : [
                -1.7597965002059937,
                -0.0021067261695861816,
                -0.776644766330719
            ],
            "type" : "VEC3"
        },
        {
            "bufferView" : 5,
            "componentType" : 5126,
            "count" : 344,
            "type" : "VEC3"
        },
        {
            "bufferView" : 6,
            "componentType" : 5126,
            "count" : 344,
            "type" : "VEC2"
        },
        {
            "bufferView" : 7,
            "componentType" : 5123,
            "count" : 459,
            "type" : "SCALAR"
        },
        {
            "bufferView" : 8,
            "componentType" : 5126,
            "count" : 112,
            "max" : [
                1.6543291807174683,
                1.1216574907302856,
                0.5617944002151489
            ],
            "min" : [
                -1.6543291807174683,
                0.24318784475326538,
                -0.6711774468421936
            ],
            "type" : "VEC3"
        },
        {
            "bufferView" : 9,
            "componentType" : 5126,
            "count" : 112,
            "type" : "VEC3"
        },
        {
            "bufferView" : 10,
            "componentType" : 5126,
            "count" : 112,
            "type" : "VEC2"
        },
        {
            "bufferView" : 11,
            "componentType" : 5123,
            "count" : 192,
            "type" : "SCALAR"
        }
    ],
    "bufferViews" : [
        {
            "buffer" : 0,
            "byteLength" : 2784,
            "byteOffset" : 0
        },
        {
            "buffer" : 0,
            "byteLength" : 2784,
            "byteOffset" : 2784
        },
        {
            "buffer" : 0,
            "byteLength" : 1856,
            "byteOffset" : 5568
        },
        {
            "buffer" : 0,
            "byteLength" : 1224,
            "byteOffset" : 7424
        },
        {
            "buffer" : 0,
            "byteLength" : 4128,
            "byteOffset" : 8648
        },
        {
            "buffer" : 0,
            "byteLength" : 4128,
            "byteOffset" : 12776
        },
        {
            "buffer" : 0,
            "byteLength" : 2752,
            "byteOffset" : 16904
        },
        {
            "buffer" : 0,
            "byteLength" : 918,
            "byteOffset" : 19656
        },
        {
            "buffer" : 0,
            "byteLength" : 1344,
            "byteOffset" : 20576
        },
        {
            "buffer" : 0,
            "byteLength" : 1344,
            "byteOffset" : 21920
        },
        {
            "buffer" : 0,
            "byteLength" : 896,
            "byteOffset" : 23264
        },
        {
            "buffer" : 0,
            "byteLength" : 384,
            "byteOffset" : 24160
        }
    ],
    "buffers" : [
        {
            "byteLength" : 24544,
            "uri" : "data:application/octet-stream;base64,"
        }
    ]
}
