# Blender 3.2.0 Alpha
# www.blender.org
o Cylinder.004
v 1.440826 0.242113 0.561794
v 1.301413 0.243188 0.346085
v 1.515430 0.242113 0.561794
v 1.654329 0.243188 0.346085
v 1.301413 0.243188 -0.455468
v 1.301413 0.243188 -0.671177
v 1.654329 0.243188 -0.455468
v 1.654329 0.243188 -0.671177
v 1.440826 0.462562 0.561794
v 1.301413 0.415066 0.346085
v 1.654329 0.536463 0.346085
v 1.515430 0.488225 0.561794
v 1.301413 0.415066 -0.455468
v 1.301413 0.415066 -0.671177
v 1.654329 0.536463 -0.671177
v 1.654329 0.536463 -0.455468
v 0.454733 0.979792 0.561794
v 0.185075 1.000260 0.346085
v 0.537991 1.121657 0.346085
v 0.529166 1.005395 0.561794
v 0.185075 1.000260 -0.455468
v 0.185075 1.000260 -0.671177
v 0.537991 1.121657 -0.671177
v 0.537991 1.121657 -0.455468
v -1.301413 0.243188 0.561794
v -1.301413 0.243188 0.346085
v -1.654329 0.243188 0.561794
v -1.654329 0.243188 0.346085
v -1.301413 0.243188 -0.455468
v -1.301413 0.243188 -0.671177
v -1.654329 0.243188 -0.455468
v -1.654329 0.243188 -0.671177
v -1.301413 0.415066 0.561794
v -1.301413 0.415066 0.346085
v -1.654329 0.536463 0.346085
v -1.654329 0.536463 0.561794
v -1.301413 0.415066 -0.455468
v -1.301413 0.415066 -0.671177
v -1.654329 0.536463 -0.671177
v -1.654329 0.536463 -0.455468
v -0.185075 1.000260 0.561794
v -0.185075 1.000260 0.346085
v -0.537991 1.121657 0.346085
v -0.537991 1.121657 0.561794
v -0.185075 1.000260 -0.455468
v -0.185075 1.000260 -0.671177
v -0.537991 1.121657 -0.671177
v -0.537991 1.121657 -0.455468
v 0.537991 1.121657 0.561794
v 0.185075 1.000260 0.561794
v 1.654329 0.243188 0.561794
v 1.301413 0.243188 0.561794
v 1.654329 0.536463 0.561794
v 1.301413 0.415066 0.561794
vn -0.0000 -0.0000 -1.0000
vn -0.4643 -0.8857 -0.0000
vn 0.4643 0.8857 -0.0000
vn 1.0000 -0.0000 -0.0000
vn -1.0000 -0.0000 -0.0000
vn -0.0000 -0.0000 1.0000
vn -0.3253 0.9456 -0.0000
vn 0.4643 -0.8857 -0.0000
vn -0.4643 0.8857 -0.0000
vn 0.3253 0.9456 -0.0000
vn -0.0000 -0.0001 -1.0000
vn -0.0000 -0.0002 -1.0000
vt 0.636243 0.874492
vt 0.636243 0.874492
vt 0.636243 0.874492
vt 0.636243 0.874492
vt 0.636243 0.874492
vt 0.636243 0.874492
vt 0.636243 0.874492
vt 0.636243 0.874492
vt 0.636243 0.874492
vt 0.636243 0.874492
vt 0.636243 0.874492
vt 0.636243 0.874492
vt 0.636243 0.874492
vt 0.636243 0.874492
vt 0.636243 0.874492
vt 0.636243 0.874492
vt 0.636243 0.874492
vt 0.636243 0.874492
vt 0.636243 0.874492
vt 0.636243 0.874492
vt 0.636243 0.874492
vt 0.636243 0.874492
vt 0.636243 0.874492
vt 0.636243 0.874492
vt 0.636243 0.874492
vt 0.636243 0.874492
vt 0.636243 0.874492
vt 0.636243 0.874492
vt 0.636243 0.874492
vt 0.636243 0.874492
vt 0.636243 0.874492
vt 0.636243 0.874492
vt 0.636243 0.874492
vt 0.636243 0.874492
vt 0.636243 0.874492
vt 0.636243 0.874492
vt 0.636243 0.874492
vt 0.636243 0.874492
vt 0.636243 0.874492
vt 0.636243 0.874492
vt 0.636243 0.874492
vt 0.636243 0.874492
vt 0.636243 0.874492
vt 0.636243 0.874492
vt 0.636243 0.874492
vt 0.636243 0.874492
vt 0.636243 0.874492
vt 0.636243 0.874492
vt 0.636243 0.874492
vt 0.636243 0.874492
vt 0.636243 0.874492
vt 0.636243 0.874492
vt 0.636243 0.874492
vt 0.636243 0.874492
s 1
f 8/8/1 14/14/1 15/15/1
f 13/13/2 22/22/2 14/14/2
f 15/15/3 24/24/3 16/16/3
f 4/4/1 10/10/1 11/11/1
f 8/8/4 16/16/4 7/7/4
f 5/5/5 14/14/5 6/6/5
f 4/4/4 53/53/4 51/51/4
f 52/52/5 10/10/5 2/2/5
f 7/7/6 13/13/6 5/5/6
f 18/18/7 49/49/7 19/19/7
f 22/22/7 24/24/7 23/23/7
f 11/11/3 49/49/3 53/53/3
f 54/54/2 18/18/2 10/10/2
f 13/13/6 24/24/6 21/21/6
f 14/14/1 23/23/1 15/15/1
f 10/10/1 19/19/1 11/11/1
f 33/33/6 27/27/6 25/25/6
f 32/32/1 38/38/1 30/30/1
f 46/46/8 37/37/8 38/38/8
f 48/48/9 39/39/9 40/40/9
f 28/28/1 34/34/1 26/26/1
f 40/40/5 32/32/5 31/31/5
f 38/38/4 29/29/4 30/30/4
f 36/36/5 28/28/5 27/27/5
f 34/34/4 25/25/4 26/26/4
f 37/37/6 31/31/6 29/29/6
f 44/44/10 42/42/10 43/43/10
f 48/48/10 46/46/10 47/47/10
f 44/44/9 35/35/9 36/36/9
f 42/42/8 33/33/8 34/34/8
f 37/37/6 48/48/6 40/40/6
f 47/47/1 38/38/1 39/39/1
f 33/33/6 44/44/6 36/36/6
f 43/43/1 34/34/1 35/35/1
f 17/17/6 49/49/6 50/50/6
f 12/12/6 49/49/6 20/20/6
f 17/17/6 54/54/6 9/9/6
f 1/1/1 51/51/11 3/3/12
f 12/12/6 51/51/6 53/53/6
f 1/1/6 54/54/6 52/52/6
f 8/8/1 6/6/1 14/14/1
f 13/13/2 21/21/2 22/22/2
f 15/15/3 23/23/3 24/24/3
f 4/4/1 2/2/1 10/10/1
f 8/8/4 15/15/4 16/16/4
f 5/5/5 13/13/5 14/14/5
f 4/4/4 11/11/4 53/53/4
f 52/52/5 54/54/5 10/10/5
f 7/7/6 16/16/6 13/13/6
f 18/18/7 50/50/7 49/49/7
f 22/22/7 21/21/7 24/24/7
f 11/11/3 19/19/3 49/49/3
f 54/54/2 50/50/2 18/18/2
f 13/13/6 16/16/6 24/24/6
f 14/14/1 22/22/1 23/23/1
f 10/10/1 18/18/1 19/19/1
f 33/33/6 36/36/6 27/27/6
f 32/32/1 39/39/1 38/38/1
f 46/46/8 45/45/8 37/37/8
f 48/48/9 47/47/9 39/39/9
f 28/28/1 35/35/1 34/34/1
f 40/40/5 39/39/5 32/32/5
f 38/38/4 37/37/4 29/29/4
f 36/36/5 35/35/5 28/28/5
f 34/34/4 33/33/4 25/25/4
f 37/37/6 40/40/6 31/31/6
f 44/44/10 41/41/10 42/42/10
f 48/48/10 45/45/10 46/46/10
f 44/44/9 43/43/9 35/35/9
f 42/42/8 41/41/8 33/33/8
f 37/37/6 45/45/6 48/48/6
f 47/47/1 46/46/1 38/38/1
f 33/33/6 41/41/6 44/44/6
f 43/43/1 42/42/1 34/34/1
f 17/17/6 20/20/6 49/49/6
f 12/12/6 53/53/6 49/49/6
f 17/17/6 50/50/6 54/54/6
f 1/1/1 52/52/1 51/51/11
f 12/12/6 3/3/6 51/51/6
f 1/1/6 9/9/6 54/54/6
