# Blender 3.2.0 Alpha
# www.blender.org
o Cylinder.005
v 1.195945 -0.002107 0.667262
v 1.195945 -0.002107 0.240618
v 1.301413 0.243188 0.346085
v 1.759797 -0.002107 0.667262
v 1.759797 -0.002107 0.240618
v 1.654329 0.243188 0.346085
v 1.195945 -0.002107 -0.350001
v 1.301413 0.243188 -0.455468
v 1.195945 -0.002107 -0.776645
v 1.301413 0.243188 -0.671177
v 1.759797 -0.002107 -0.350001
v 1.654329 0.243188 -0.455468
v 1.759797 -0.002107 -0.776645
v 1.654329 0.243188 -0.671177
v 1.195945 0.243188 0.667262
v 1.195945 0.243188 0.240618
v 1.759797 0.243188 0.240618
v 1.759797 0.243188 0.667262
v 1.195945 0.243188 -0.350001
v 1.195945 0.243188 -0.776645
v 1.759797 0.243188 -0.776645
v 1.759797 0.243188 -0.350001
v -1.195945 -0.002107 0.667262
v -1.301413 0.243188 0.561794
v -1.195945 -0.002107 0.240618
v -1.301413 0.243188 0.346085
v -1.759797 -0.002107 0.667262
v -1.654329 0.243188 0.561794
v -1.759797 -0.002107 0.240618
v -1.654329 0.243188 0.346085
v -1.195945 -0.002107 -0.350001
v -1.301413 0.243188 -0.455468
v -1.195945 -0.002107 -0.776645
v -1.301413 0.243188 -0.671177
v -1.759797 -0.002107 -0.350001
v -1.654329 0.243188 -0.455468
v -1.759797 -0.002107 -0.776645
v -1.654329 0.243188 -0.671177
v -1.195945 0.243188 0.667262
v -1.195945 0.243188 0.240618
v -1.759797 0.243188 0.240618
v -1.759797 0.243188 0.667262
v -1.195945 0.243188 -0.350001
v -1.195945 0.243188 -0.776645
v -1.759797 0.243188 -0.776645
v -1.759797 0.243188 -0.350001
v 1.654329 0.243188 0.561794
v 1.301413 0.243188 0.561794
vn -1.0000 -0.0000 -0.0000
vn -0.0000 -0.0000 -1.0000
vn 1.0000 -0.0000 -0.0000
vn -0.0000 -0.0000 1.0000
vn -0.0000 -1.0000 -0.0000
vn -0.0000 1.0000 -0.0000
vt 0.878708 0.884601
vt 0.878708 0.884601
vt 0.878708 0.884601
vt 0.878708 0.884601
vt 0.878708 0.884601
vt 0.878708 0.884601
vt 0.878708 0.884601
vt 0.878708 0.884601
vt 0.878708 0.884601
vt 0.878708 0.884601
vt 0.878708 0.884601
vt 0.878708 0.884601
vt 0.878708 0.884601
vt 0.878708 0.884601
vt 0.878708 0.884601
vt 0.878708 0.884601
vt 0.878708 0.884601
vt 0.878708 0.884601
vt 0.878708 0.884601
vt 0.878708 0.884601
vt 0.878708 0.884601
vt 0.878708 0.884601
vt 0.878708 0.884601
vt 0.878708 0.884601
vt 0.878708 0.884601
vt 0.878708 0.884601
vt 0.878708 0.884601
vt 0.878708 0.884601
vt 0.878708 0.884601
vt 0.878708 0.884601
vt 0.878708 0.884601
vt 0.878708 0.884601
vt 0.878708 0.884601
vt 0.878708 0.884601
vt 0.878708 0.884601
vt 0.878708 0.884601
vt 0.878708 0.884601
vt 0.878708 0.884601
vt 0.878708 0.884601
vt 0.878708 0.884601
vt 0.878708 0.884601
vt 0.878708 0.884601
vt 0.878708 0.884601
vt 0.878708 0.884601
vt 0.878708 0.884601
vt 0.878708 0.884601
vt 0.878708 0.884601
vt 0.878708 0.884601
s 1
f 15/15/1 2/2/1 1/1/1
f 16/16/2 5/5/2 2/2/2
f 17/17/3 4/4/3 5/5/3
f 18/18/4 1/1/4 4/4/4
f 5/5/5 1/1/5 2/2/5
f 19/19/1 9/9/1 7/7/1
f 20/20/2 13/13/2 9/9/2
f 21/21/3 11/11/3 13/13/3
f 22/22/4 7/7/4 11/11/4
f 13/13/5 7/7/5 9/9/5
f 3/3/6 15/15/6 48/48/6
f 6/6/6 16/16/6 3/3/6
f 47/47/6 17/17/6 6/6/6
f 48/48/6 18/18/6 47/47/6
f 10/10/6 19/19/6 8/8/6
f 14/14/6 20/20/6 10/10/6
f 12/12/6 21/21/6 14/14/6
f 8/8/6 22/22/6 12/12/6
f 25/25/3 39/39/3 23/23/3
f 29/29/2 40/40/2 25/25/2
f 27/27/1 41/41/1 29/29/1
f 23/23/4 42/42/4 27/27/4
f 23/23/5 29/29/5 25/25/5
f 33/33/3 43/43/3 31/31/3
f 37/37/2 44/44/2 33/33/2
f 35/35/1 45/45/1 37/37/1
f 31/31/4 46/46/4 35/35/4
f 31/31/5 37/37/5 33/33/5
f 39/39/6 26/26/6 24/24/6
f 40/40/6 30/30/6 26/26/6
f 41/41/6 28/28/6 30/30/6
f 42/42/6 24/24/6 28/28/6
f 43/43/6 34/34/6 32/32/6
f 44/44/6 38/38/6 34/34/6
f 45/45/6 36/36/6 38/38/6
f 46/46/6 32/32/6 36/36/6
f 15/15/1 16/16/1 2/2/1
f 16/16/2 17/17/2 5/5/2
f 17/17/3 18/18/3 4/4/3
f 18/18/4 15/15/4 1/1/4
f 5/5/5 4/4/5 1/1/5
f 19/19/1 20/20/1 9/9/1
f 20/20/2 21/21/2 13/13/2
f 21/21/3 22/22/3 11/11/3
f 22/22/4 19/19/4 7/7/4
f 13/13/5 11/11/5 7/7/5
f 3/3/6 16/16/6 15/15/6
f 6/6/6 17/17/6 16/16/6
f 47/47/6 18/18/6 17/17/6
f 48/48/6 15/15/6 18/18/6
f 10/10/6 20/20/6 19/19/6
f 14/14/6 21/21/6 20/20/6
f 12/12/6 22/22/6 21/21/6
f 8/8/6 19/19/6 22/22/6
f 25/25/3 40/40/3 39/39/3
f 29/29/2 41/41/2 40/40/2
f 27/27/1 42/42/1 41/41/1
f 23/23/4 39/39/4 42/42/4
f 23/23/5 27/27/5 29/29/5
f 33/33/3 44/44/3 43/43/3
f 37/37/2 45/45/2 44/44/2
f 35/35/1 46/46/1 45/45/1
f 31/31/4 43/43/4 46/46/4
f 31/31/5 35/35/5 37/37/5
f 39/39/6 40/40/6 26/26/6
f 40/40/6 41/41/6 30/30/6
f 41/41/6 42/42/6 28/28/6
f 42/42/6 39/39/6 24/24/6
f 43/43/6 44/44/6 34/34/6
f 44/44/6 45/45/6 38/38/6
f 45/45/6 46/46/6 36/36/6
f 46/46/6 43/43/6 32/32/6
