# Blender 3.2.0 Alpha
# www.blender.org
o Cylinder.006
v 1.440826 0.242113 0.561794
v 1.515430 0.242113 0.561794
v -0.551282 0.004758 0.000000
v -0.512538 0.180000 -0.023187
v -0.552699 0.180000 -0.046373
v -0.512538 0.180000 0.023187
v -0.552699 0.180000 0.046373
v -0.592701 0.180000 0.023187
v -0.592701 0.180000 -0.023187
v -0.422306 0.004758 0.354357
v -0.407531 0.180000 0.311691
v -0.453200 0.180000 0.319744
v -0.377723 0.180000 0.347215
v -0.393584 0.180000 0.390792
v -0.439132 0.180000 0.398743
v -0.468940 0.180000 0.363219
v -0.095729 0.004758 0.542906
v -0.111836 0.180000 0.500725
v -0.141644 0.180000 0.536249
v -0.066167 0.180000 0.508778
v -0.050307 0.180000 0.552354
v -0.080088 0.180000 0.587723
v -0.125756 0.180000 0.579670
v 0.275640 0.004757 0.477424
v 0.236189 0.180000 0.455464
v 0.236189 0.180000 0.501837
v 0.276349 0.180000 0.432278
v 0.316509 0.180000 0.455464
v 0.316430 0.180000 0.501701
v 0.276270 0.180000 0.524888
v 0.518035 0.004757 0.188549
v 0.473698 0.180000 0.197087
v 0.503506 0.180000 0.232611
v 0.489558 0.180000 0.153510
v 0.535227 0.180000 0.145458
v 0.564887 0.180000 0.180928
v 0.549026 0.180000 0.224504
v 0.518035 0.004757 -0.188549
v 0.489558 0.180000 -0.153510
v 0.535227 0.180000 -0.145457
v 0.473698 0.180000 -0.197086
v 0.503506 0.180000 -0.232610
v 0.549026 0.180000 -0.224504
v 0.564887 0.180000 -0.180927
v 0.275641 0.004757 -0.477424
v 0.276349 0.180000 -0.432278
v 0.316509 0.180000 -0.455464
v 0.236189 0.180000 -0.455464
v 0.236189 0.180000 -0.501837
v 0.276270 0.180000 -0.524888
v 0.316431 0.180000 -0.501701
v -0.095729 0.004758 -0.542906
v -0.066167 0.180000 -0.508778
v -0.050307 0.180000 -0.552354
v -0.111836 0.180000 -0.500725
v -0.141644 0.180000 -0.536249
v -0.125756 0.180000 -0.579670
v -0.080087 0.180000 -0.587723
v -0.422306 0.004758 -0.354357
v -0.377723 0.180000 -0.347215
v -0.393584 0.180000 -0.390792
v -0.407531 0.180000 -0.311691
v -0.453200 0.180000 -0.319744
v -0.468940 0.180000 -0.363219
v -0.439132 0.180000 -0.398743
v 1.515430 0.242113 0.601794
v 1.440826 0.242113 0.601794
vn -0.0000 1.0000 -0.0000
vn -0.9732 -0.2300 -0.0000
vn 0.4878 -0.2196 0.8449
vn 0.4878 -0.2196 -0.8449
vn -0.4884 -0.2269 -0.8426
vn -0.4884 -0.2269 0.8426
vn -0.7455 -0.2300 0.6256
vn 0.9167 -0.2196 0.3337
vn -0.1694 -0.2196 -0.9608
vn -0.9157 -0.2269 -0.3315
vn 0.1675 -0.2269 0.9594
vn -0.1690 -0.2300 0.9584
vn 0.9167 -0.2196 -0.3337
vn -0.7473 -0.2196 -0.6271
vn -0.9146 -0.2269 0.3347
vn 0.7450 -0.2269 0.6273
vn 0.4866 -0.2300 0.8428
vn -0.9756 -0.2196 -0.0000
vn -0.4855 -0.2269 0.8443
vn 0.9739 -0.2269 0.0017
vn 0.9145 -0.2300 0.3328
vn -0.7473 -0.2196 0.6271
vn 0.1708 -0.2269 0.9588
vn 0.7471 -0.2269 -0.6247
vn 0.9145 -0.2300 -0.3329
vn -0.1694 -0.2196 0.9608
vn 0.7471 -0.2269 0.6247
vn 0.1708 -0.2269 -0.9588
vn 0.4866 -0.2300 -0.8428
vn 0.9739 -0.2269 -0.0017
vn -0.4855 -0.2269 -0.8443
vn -0.1690 -0.2300 -0.9584
vn 0.7450 -0.2269 -0.6273
vn -0.9146 -0.2269 -0.3347
vn -0.7455 -0.2300 -0.6256
vn 0.1675 -0.2269 -0.9594
vn -0.9157 -0.2269 0.3315
vn -0.0000 -1.0000 -0.0000
vt 0.129277 0.612652
vt 0.129277 0.612652
vt 0.129277 0.612652
vt 0.129277 0.612652
vt 0.129277 0.612652
vt 0.129277 0.612652
vt 0.129277 0.612652
vt 0.129277 0.612652
vt 0.129277 0.612652
vt 0.129277 0.612652
vt 0.129277 0.612652
vt 0.129277 0.612652
vt 0.129277 0.612652
vt 0.129277 0.612652
vt 0.129277 0.612652
vt 0.129277 0.612652
vt 0.129277 0.612652
vt 0.129277 0.612652
vt 0.129277 0.612652
vt 0.129277 0.612652
vt 0.129277 0.612652
vt 0.129277 0.612652
vt 0.129277 0.612652
vt 0.129277 0.612652
vt 0.129277 0.612652
vt 0.129277 0.612652
vt 0.129277 0.612652
vt 0.129277 0.612652
vt 0.129277 0.612652
vt 0.129277 0.612652
vt 0.129277 0.612652
vt 0.129277 0.612652
vt 0.129277 0.612652
vt 0.129277 0.612652
vt 0.129277 0.612652
vt 0.129277 0.612652
vt 0.129277 0.612652
vt 0.129277 0.612652
vt 0.129277 0.612652
vt 0.129277 0.612652
vt 0.129277 0.612652
vt 0.129277 0.612652
vt 0.129277 0.612652
vt 0.129277 0.612652
vt 0.129277 0.612652
vt 0.129277 0.612652
vt 0.129277 0.612652
vt 0.129277 0.612652
vt 0.129277 0.612652
vt 0.129277 0.612652
vt 0.129277 0.612652
vt 0.129277 0.612652
vt 0.129277 0.612652
vt 0.129277 0.612652
vt 0.129277 0.612652
vt 0.129277 0.612652
vt 0.129277 0.612652
vt 0.129277 0.612652
vt 0.129277 0.612652
vt 0.129277 0.612652
vt 0.129277 0.612652
vt 0.129277 0.612652
vt 0.129277 0.612652
vt 0.129277 0.612652
vt 0.129277 0.612652
vt 0.129277 0.612652
vt 0.129277 0.612652
s 0
f 6/6/1 5/5/1 8/8/1
f 5/5/1 6/6/1 4/4/1
f 6/6/1 8/8/1 7/7/1
f 8/8/1 5/5/1 9/9/1
f 3/3/2 8/8/2 9/9/2
f 3/3/3 6/6/3 7/7/3
f 3/3/4 5/5/4 4/4/4
f 3/3/5 9/9/5 5/5/5
f 3/3/6 7/7/6 8/8/6
f 13/13/1 12/12/1 15/15/1
f 12/12/1 13/13/1 11/11/1
f 13/13/1 15/15/1 14/14/1
f 15/15/1 12/12/1 16/16/1
f 10/10/7 15/15/7 16/16/7
f 10/10/8 13/13/8 14/14/8
f 10/10/9 12/12/9 11/11/9
f 10/10/10 16/16/10 12/12/10
f 10/10/11 14/14/11 15/15/11
f 20/20/1 19/19/1 22/22/1
f 19/19/1 20/20/1 18/18/1
f 20/20/1 22/22/1 21/21/1
f 22/22/1 19/19/1 23/23/1
f 17/17/12 22/22/12 23/23/12
f 17/17/13 20/20/13 21/21/13
f 17/17/14 19/19/14 18/18/14
f 17/17/15 23/23/15 19/19/15
f 17/17/16 21/21/16 22/22/16
f 27/27/1 26/26/1 29/29/1
f 26/26/1 27/27/1 25/25/1
f 27/27/1 29/29/1 28/28/1
f 29/29/1 26/26/1 30/30/1
f 24/24/17 29/29/17 30/30/17
f 24/24/4 27/27/4 28/28/4
f 24/24/18 26/26/18 25/25/18
f 24/24/19 30/30/19 26/26/19
f 24/24/20 28/28/20 29/29/20
f 34/34/1 33/33/1 36/36/1
f 33/33/1 34/34/1 32/32/1
f 34/34/1 36/36/1 35/35/1
f 36/36/1 33/33/1 37/37/1
f 31/31/21 36/36/21 37/37/21
f 31/31/9 34/34/9 35/35/9
f 31/31/22 33/33/22 32/32/22
f 31/31/23 37/37/23 33/33/23
f 31/31/24 35/35/24 36/36/24
f 41/41/1 40/40/1 43/43/1
f 40/40/1 41/41/1 39/39/1
f 41/41/1 43/43/1 42/42/1
f 43/43/1 40/40/1 44/44/1
f 38/38/25 43/43/25 44/44/25
f 38/38/14 41/41/14 42/42/14
f 38/38/26 40/40/26 39/39/26
f 38/38/27 44/44/27 40/40/27
f 38/38/28 42/42/28 43/43/28
f 48/48/1 47/47/1 50/50/1
f 47/47/1 48/48/1 46/46/1
f 48/48/1 50/50/1 49/49/1
f 50/50/1 47/47/1 51/51/1
f 45/45/29 50/50/29 51/51/29
f 45/45/18 48/48/18 49/49/18
f 45/45/3 47/47/3 46/46/3
f 45/45/30 51/51/30 47/47/30
f 45/45/31 49/49/31 50/50/31
f 55/55/1 54/54/1 57/57/1
f 54/54/1 55/55/1 53/53/1
f 55/55/1 57/57/1 56/56/1
f 57/57/1 54/54/1 58/58/1
f 52/52/32 57/57/32 58/58/32
f 52/52/22 55/55/22 56/56/22
f 52/52/8 54/54/8 53/53/8
f 52/52/33 58/58/33 54/54/33
f 52/52/34 56/56/34 57/57/34
f 62/62/1 61/61/1 64/64/1
f 61/61/1 62/62/1 60/60/1
f 62/62/1 64/64/1 63/63/1
f 64/64/1 61/61/1 65/65/1
f 59/59/35 64/64/35 65/65/35
f 59/59/26 62/62/26 63/63/26
f 59/59/13 61/61/13 60/60/13
f 59/59/36 65/65/36 61/61/36
f 59/59/37 63/63/37 64/64/37
s 1
f 2/2/38 67/67/38 1/1/38
f 2/2/38 66/66/38 67/67/38
