# Blender 3.2.0 Alpha
# www.blender.org
o Cylinder.001
v 1.440826 0.242113 0.561794
v 1.515430 0.242113 0.561794
v 1.440826 0.462562 0.561794
v 1.515430 0.488225 0.561794
v 0.454733 0.979792 0.561794
v 0.529166 1.005395 0.561794
v 1.515430 0.488225 0.601794
v 1.440826 0.462562 0.601794
v 0.529166 1.005395 0.601794
v 0.454733 0.979792 0.601794
v 1.515430 0.242113 0.601794
v 1.440826 0.242113 0.601794
v 1.440826 0.242113 -0.670671
v 1.515430 0.242113 -0.670671
v 1.440826 0.462562 -0.670671
v 1.515430 0.488225 -0.670671
v 0.454733 0.979792 -0.670671
v 0.529166 1.005395 -0.670671
v 1.515430 0.488225 -0.710671
v 1.440826 0.462562 -0.710671
v 0.529166 1.005395 -0.710671
v 0.454733 0.979792 -0.710671
v 1.515430 0.242113 -0.710671
v 1.440826 0.242113 -0.710671
v 0.000000 0.897667 -0.940371
v 0.000000 0.971778 -0.940371
v 0.339670 0.897667 -0.872806
v 0.339670 0.971778 -0.872806
v 0.694278 0.897667 -0.633276
v 0.701086 0.892442 0.522234
v 0.339670 0.892442 0.767266
v 0.339670 0.966552 0.767266
v 0.000000 0.892442 0.834830
v 0.000000 0.966552 0.834830
v 0.000000 0.897667 -0.990669
v 0.358918 0.897667 -0.919276
v 0.358918 0.971778 -0.919276
v 0.000000 0.971778 -0.990669
v 0.729844 0.897667 -0.668842
v 0.736652 0.892442 0.557800
v 0.358918 0.892442 0.813735
v 0.358918 0.966552 0.813735
v 0.000000 0.892442 0.885129
v 0.000000 0.966552 0.885129
v 0.593981 0.971778 -0.760571
v 0.729844 0.900489 -0.668842
v 0.603940 0.966552 0.647720
v 0.736652 0.896916 0.557800
v 0.593981 0.971778 -0.701024
v 0.603940 0.966552 0.588096
v -1.440826 0.242113 0.561794
v -1.515430 0.242113 0.561794
v -1.440826 0.462562 0.561794
v -1.515430 0.488225 0.561794
v -0.454733 0.979792 0.561794
v -0.529166 1.005395 0.561794
v -1.515430 0.488225 0.601794
v -1.440826 0.462562 0.601794
v -0.529166 1.005395 0.601794
v -0.454733 0.979792 0.601794
v -1.515430 0.242113 0.601794
v -1.440826 0.242113 0.601794
v -1.440826 0.242113 -0.670671
v -1.515430 0.242113 -0.670671
v -1.440826 0.462562 -0.670671
v -1.515430 0.488225 -0.670671
v -0.454733 0.979792 -0.670671
v -0.529166 1.005395 -0.670671
v -1.515430 0.488225 -0.710671
v -1.440826 0.462562 -0.710671
v -0.529166 1.005395 -0.710671
v -0.454733 0.979792 -0.710671
v -1.515430 0.242113 -0.710671
v -1.440826 0.242113 -0.710671
v -0.339670 0.897667 -0.872806
v -0.339670 0.971778 -0.872806
v -0.694278 0.897667 -0.633276
v -0.701086 0.892442 0.522234
v -0.339670 0.892442 0.767266
v -0.339670 0.966552 0.767266
v -0.358918 0.897667 -0.919276
v -0.358918 0.971778 -0.919276
v -0.729844 0.897667 -0.668842
v -0.736652 0.892442 0.557800
v -0.358918 0.892442 0.813735
v -0.358918 0.966552 0.813735
v -0.593981 0.971778 -0.760571
v -0.729844 0.900489 -0.668842
v -0.603940 0.966552 0.647720
v -0.736652 0.896916 0.557800
v -0.593981 0.971778 -0.701024
v -0.603940 0.966552 0.588096
vn -0.4645 -0.8856 -0.0000
vn 1.0000 -0.0000 -0.0000
vn -0.0000 -0.0000 1.0000
vn -0.3253 0.9456 -0.0000
vn -1.0000 -0.0000 -0.0000
vn 0.4644 0.8856 -0.0000
vn 0.2321 -0.9589 -0.1632
vn 0.5256 0.6688 -0.5258
vn 0.1557 0.0943 -0.9833
vn -0.5001 0.7071 -0.4998
vn 0.7907 0.0504 -0.6102
vn 0.0511 0.0308 -0.9982
vn 0.3253 -0.9456 -0.0000
vn 0.1951 -0.0000 -0.9808
vn 0.5596 -0.0000 -0.8288
vn 0.5609 -0.0000 0.8279
vn 0.1951 -0.0000 0.9808
vn -0.0000 -1.0000 -0.0000
vn -0.0000 1.0000 -0.0000
vn 0.4646 0.8855 -0.0000
vn 0.4645 -0.8856 -0.0000
vn 0.3253 0.9456 -0.0000
vn -0.4644 0.8856 -0.0000
vn -0.2321 -0.9589 -0.1632
vn -0.5256 0.6688 -0.5258
vn -0.1557 0.0943 -0.9833
vn 0.5001 0.7071 -0.4998
vn -0.7907 0.0504 -0.6102
vn -0.3253 -0.9456 -0.0000
vn -0.0513 0.0306 -0.9982
vn -0.1951 -0.0000 -0.9808
vn -0.5596 -0.0000 -0.8288
vn -0.5609 -0.0000 0.8279
vn -0.1951 -0.0000 0.9808
vn -0.4646 0.8855 -0.0000
vt 0.389805 0.606445
vt 0.389805 0.606445
vt 0.389805 0.606445
vt 0.389805 0.606445
vt 0.389805 0.606445
vt 0.389805 0.606445
vt 0.389805 0.606445
vt 0.389805 0.606445
vt 0.389805 0.606445
vt 0.389805 0.606445
vt 0.389805 0.606445
vt 0.389805 0.606445
vt 0.389805 0.606445
vt 0.389805 0.606445
vt 0.389805 0.606445
vt 0.389805 0.606445
vt 0.389805 0.606445
vt 0.389805 0.606445
vt 0.389805 0.606445
vt 0.389805 0.606445
vt 0.389805 0.606445
vt 0.389805 0.606445
vt 0.389805 0.606445
vt 0.389805 0.606445
vt 0.389805 0.606445
vt 0.389805 0.606445
vt 0.389805 0.606445
vt 0.389805 0.606445
vt 0.389805 0.606445
vt 0.389805 0.606445
vt 0.389805 0.606445
vt 0.389805 0.606445
vt 0.389805 0.606445
vt 0.389805 0.606445
vt 0.389805 0.606445
vt 0.389805 0.606445
vt 0.389805 0.606445
vt 0.389805 0.606445
vt 0.389805 0.606445
vt 0.389805 0.606445
vt 0.389805 0.606445
vt 0.389805 0.606445
vt 0.389805 0.606445
vt 0.389805 0.606445
vt 0.389805 0.606445
vt 0.389805 0.606445
vt 0.389805 0.606445
vt 0.389805 0.606445
vt 0.389805 0.606445
vt 0.389805 0.606445
vt 0.389805 0.606445
vt 0.389805 0.606445
vt 0.389805 0.606445
vt 0.389805 0.606445
vt 0.389805 0.606445
vt 0.389805 0.606445
vt 0.389805 0.606445
vt 0.389805 0.606445
vt 0.389805 0.606445
vt 0.389805 0.606445
vt 0.389805 0.606445
vt 0.389805 0.606445
vt 0.389805 0.606445
vt 0.389805 0.606445
vt 0.389805 0.606445
vt 0.389805 0.606445
vt 0.389805 0.606445
vt 0.389805 0.606445
vt 0.389805 0.606445
vt 0.389805 0.606445
vt 0.389805 0.606445
vt 0.389805 0.606445
vt 0.389805 0.606445
vt 0.389805 0.606445
vt 0.389805 0.606445
vt 0.389805 0.606445
vt 0.389805 0.606445
vt 0.389805 0.606445
vt 0.389805 0.606445
vt 0.389805 0.606445
vt 0.389805 0.606445
vt 0.389805 0.606445
vt 0.389805 0.606445
vt 0.389805 0.606445
vt 0.389805 0.606445
vt 0.389805 0.606445
vt 0.389805 0.606445
vt 0.389805 0.606445
vt 0.389805 0.606445
vt 0.389805 0.606445
vt 0.389805 0.606445
vt 0.389805 0.606445
s 1
f 3/3/1 10/10/1 5/5/1
f 4/4/2 11/11/2 2/2/2
f 11/11/3 8/8/3 12/12/3
f 8/8/3 9/9/3 10/10/3
f 5/5/4 9/9/4 6/6/4
f 1/1/5 8/8/5 3/3/5
f 6/6/6 7/7/6 4/4/6
f 22/22/7 15/15/1 17/17/1
f 23/23/8 16/16/2 14/14/2
f 20/20/9 23/23/8 24/24/10
f 20/20/9 21/21/11 19/19/12
f 17/17/13 21/21/13 18/18/13
f 20/20/9 13/13/5 15/15/5
f 19/19/12 18/18/6 16/16/6
s 0
f 38/38/14 36/36/14 35/35/14
f 36/36/15 45/45/15 46/46/15
f 41/41/16 48/48/16 47/47/16
f 42/42/17 43/43/17 41/41/17
f 25/25/18 36/36/18 27/27/18
f 28/28/19 38/38/19 26/26/19
f 27/27/18 39/39/18 29/29/18
f 28/28/19 45/45/19 37/37/19
f 31/31/18 40/40/18 41/41/18
f 32/32/19 47/47/19 50/50/19
f 31/31/18 43/43/18 33/33/18
f 34/34/19 42/42/19 32/32/19
f 48/48/20 50/50/20 47/47/20
f 46/46/20 45/45/20 49/49/20
s 1
f 60/60/21 53/53/21 55/55/21
f 61/61/5 54/54/5 52/52/5
f 58/58/3 61/61/3 62/62/3
f 58/58/3 59/59/3 57/57/3
f 59/59/22 55/55/22 56/56/22
f 58/58/2 51/51/2 53/53/2
f 57/57/23 56/56/23 54/54/23
f 65/65/21 72/72/24 67/67/21
f 66/66/5 73/73/25 64/64/5
f 73/73/25 70/70/26 74/74/27
f 70/70/26 71/71/28 72/72/24
f 71/71/29 67/67/29 68/68/29
f 63/63/2 70/70/26 65/65/2
f 68/68/23 69/69/30 66/66/23
s 0
f 81/81/31 38/38/31 35/35/31
f 88/88/32 82/82/32 81/81/32
f 89/89/33 84/84/33 85/85/33
f 43/43/34 86/86/34 85/85/34
f 81/81/18 25/25/18 75/75/18
f 38/38/19 76/76/19 26/26/19
f 83/83/18 75/75/18 77/77/18
f 87/87/19 76/76/19 82/82/19
f 79/79/18 84/84/18 78/78/18
f 89/89/19 80/80/19 92/92/19
f 43/43/18 79/79/18 33/33/18
f 86/86/19 34/34/19 80/80/19
f 90/90/35 89/89/35 92/92/35
f 88/88/35 91/91/35 87/87/35
s 1
f 3/3/1 8/8/1 10/10/1
f 4/4/2 7/7/2 11/11/2
f 11/11/3 7/7/3 8/8/3
f 8/8/3 7/7/3 9/9/3
f 5/5/4 10/10/4 9/9/4
f 1/1/5 12/12/5 8/8/5
f 6/6/6 9/9/6 7/7/6
f 22/22/7 20/20/9 15/15/1
f 23/23/8 19/19/12 16/16/2
f 20/20/9 19/19/12 23/23/8
f 20/20/9 22/22/7 21/21/11
f 17/17/13 22/22/13 21/21/13
f 20/20/9 24/24/10 13/13/5
f 19/19/12 21/21/11 18/18/6
s 0
f 38/38/14 37/37/14 36/36/14
f 46/46/15 39/39/15 36/36/15
f 36/36/15 37/37/15 45/45/15
f 47/47/16 42/42/16 41/41/16
f 41/41/16 40/40/16 48/48/16
f 42/42/17 44/44/17 43/43/17
f 25/25/18 35/35/18 36/36/18
f 28/28/19 37/37/19 38/38/19
f 27/27/18 36/36/18 39/39/18
f 28/28/19 49/49/19 45/45/19
f 31/31/18 30/30/18 40/40/18
f 32/32/19 42/42/19 47/47/19
f 31/31/18 41/41/18 43/43/18
f 34/34/19 44/44/19 42/42/19
s 1
f 60/60/21 58/58/21 53/53/21
f 61/61/5 57/57/5 54/54/5
f 58/58/3 57/57/3 61/61/3
f 58/58/3 60/60/3 59/59/3
f 59/59/22 60/60/22 55/55/22
f 58/58/2 62/62/2 51/51/2
f 57/57/23 59/59/23 56/56/23
f 65/65/21 70/70/26 72/72/24
f 66/66/5 69/69/30 73/73/25
f 73/73/25 69/69/30 70/70/26
f 70/70/26 69/69/30 71/71/28
f 71/71/29 72/72/29 67/67/29
f 63/63/2 74/74/27 70/70/26
f 68/68/23 71/71/28 69/69/30
s 0
f 81/81/31 82/82/31 38/38/31
f 81/81/32 83/83/32 88/88/32
f 88/88/32 87/87/32 82/82/32
f 85/85/33 86/86/33 89/89/33
f 89/89/33 90/90/33 84/84/33
f 43/43/34 44/44/34 86/86/34
f 81/81/18 35/35/18 25/25/18
f 38/38/19 82/82/19 76/76/19
f 83/83/18 81/81/18 75/75/18
f 87/87/19 91/91/19 76/76/19
f 79/79/18 85/85/18 84/84/18
f 89/89/19 86/86/19 80/80/19
f 43/43/18 85/85/18 79/79/18
f 86/86/19 44/44/19 34/34/19
