{
    "asset" : {
        "generator" : "Khronos glTF Blender I/O v3.3.3",
        "version" : "2.0"
    },
    "scene" : 0,
    "scenes" : [
        {
            "name" : "Scene",
            "nodes" : [
                0
            ]
        }
    ],
    "nodes" : [
        {
            "mesh" : 0,
            "name" : "Circle_clean",
            "rotation" : [
                0,
                0.7071068286895752,
                -0.7071068286895752,
                0
            ],
            "scale" : [
                -1,
                -1,
                -1
            ]
        }
    ],
    "materials" : [
        {
            "doubleSided" : true,
            "name" : "Material.001",
            "pbrMetallicRoughness" : {
                "baseColorFactor" : [
                    0.2956913113594055,
                    0.2956913113594055,
                    0.2956913113594055,
                    1
                ],
                "metallicFactor" : 0,
                "roughnessFactor" : 0.5
            }
        },
        {
            "doubleSided" : true,
            "name" : "Material",
            "pbrMetallicRoughness" : {
                "baseColorFactor" : [
                    0.800000011920929,
                    0.800000011920929,
                    0.800000011920929,
                    1
                ],
                "metallicFactor" : 0.7795275449752808,
                "roughnessFactor" : 0.28740155696868896
            }
        }
    ],
    "meshes" : [
        {
            "name" : "Circle.006",
            "primitives" : [
                {
                    "attributes" : {
                        "POSITION" : 0,
                        "NORMAL" : 1,
                        "TEXCOORD_0" : 2
                    },
                    "indices" : 3,
                    "material" : 0
                },
                {
                    "attributes" : {
                        "POSITION" : 4,
                        "NORMAL" : 5,
                        "TEXCOORD_0" : 6
                    },
                    "indices" : 7,
                    "material" : 1
                }
            ]
        }
    ],
    "accessors" : [
        {
            "bufferView" : 0,
            "componentType" : 5126,
            "count" : 314,
            "max" : [
                0.20000000298023224,
                0.19999998807907104,
                0.3700000047683716
            ],
            "min" : [
                -0.20000000298023224,
                -0.20000000298023224,
                -4.470348358154297e-08
            ],
            "type" : "VEC3"
        },
        {
            "bufferView" : 1,
            "componentType" : 5126,
            "count" : 314,
            "type" : "VEC3"
        },
        {
            "bufferView" : 2,
            "componentType" : 5126,
            "count" : 314,
            "type" : "VEC2"
        },
        {
            "bufferView" : 3,
            "componentType" : 5123,
            "count" : 1200,
            "type" : "SCALAR"
        },
        {
            "bufferView" : 4,
            "componentType" : 5126,
            "count" : 255,
            "max" : [
                0.18598073720932007,
                0.1685640811920166,
                0.12140437960624695
            ],
            "min" : [
                -0.18598079681396484,
                -0.1685640811920166,
                0.1014043539762497
            ],
            "type" : "VEC3"
        },
        {
            "bufferView" : 5,
            "componentType" : 5126,
            "count" : 255,
            "type" : "VEC3"
        },
        {
            "bufferView" : 6,
            "componentType" : 5126,
            "count" : 255,
            "type" : "VEC2"
        },
        {
            "bufferView" : 7,
            "componentType" : 5123,
            "count" : 288,
            "type" : "SCALAR"
        }
    ],
    "bufferViews" : [
        {
            "buffer" : 0,
            "byteLength" : 3768,
            "byteOffset" : 0
        },
        {
            "buffer" : 0,
            "byteLength" : 3768,
            "byteOffset" : 3768
        },
        {
            "buffer" : 0,
            "byteLength" : 2512,
            "byteOffset" : 7536
        },
        {
            "buffer" : 0,
            "byteLength" : 2400,
            "byteOffset" : 10048
        },
        {
            "buffer" : 0,
            "byteLength" : 3060,
            "byteOffset" : 12448
        },
        {
            "buffer" : 0,
            "byteLength" : 3060,
            "byteOffset" : 15508
        },
        {
            "buffer" : 0,
            "byteLength" : 2040,
            "byteOffset" : 18568
        },
        {
            "buffer" : 0,
            "byteLength" : 576,
            "byteOffset" : 20608
        }
    ],
    "buffers" : [
        {
            "byteLength" : 21184,
            "uri" : "data:application/octet-stream;base64,"
        }
    ]
}
