# Blender v3.0.1 OBJ File: 'ground1.blend'
# www.blender.org
mtllib ground1.mtl
o Cube
v -1.000000 1.000000 1.000000
v -1.000000 -1.000000 1.000000
v -1.000000 1.000000 -1.000000
v -1.000000 -1.000000 -1.000000
v 1.000000 1.000000 1.000000
v 1.000000 -1.000000 1.000000
v 1.000000 1.000000 -1.000000
v 1.000000 -1.000000 -1.000000
v -1.000000 1.000000 -3.000000
v -1.000000 -1.000000 -3.000000
v 1.000000 1.000000 -3.000000
v 1.000000 -1.000000 -3.000000
v -1.000000 1.000000 -5.000000
v -1.000000 -1.000000 -5.000000
v 1.000000 1.000000 -5.000000
v 1.000000 -1.000000 -5.000000
v -3.000000 1.000000 1.000000
v -3.000000 -1.000000 1.000000
v -3.000000 1.000000 -1.000000
v -3.000000 -1.000000 -1.000000
v -3.000000 1.000000 -3.000000
v -3.000000 -1.000000 -3.000000
v -3.000000 1.000000 -5.000000
v -3.000000 -1.000000 -5.000000
v -5.000000 1.000000 1.000000
v -5.000000 -1.000000 1.000000
v -5.000000 1.000000 -1.000000
v -5.000000 -1.000000 -1.000000
v -5.000000 1.000000 -3.000000
v -5.000000 -1.000000 -3.000000
v -5.000000 1.000000 -5.000000
v -5.000000 -1.000000 -5.000000
v -3.000000 1.000000 0.000000
v -5.000000 1.000000 0.000000
v -4.000000 1.000000 -1.000000
v -4.000000 1.000000 1.000000
v -0.500000 5.000000 -4.000000
v 0.000000 1.000000 -1.000000
v -1.000000 1.000000 0.000000
v 1.000000 1.000000 0.000000
v 0.000000 1.000000 1.000000
v 0.000000 5.000000 -3.500000
v 0.000000 1.000000 -3.000000
v 0.000000 1.000000 -5.000000
v 1.000000 1.000000 -4.000000
v -1.000000 1.000000 -4.000000
v 1.000000 5.000000 -3.500000
v -3.000000 1.000000 -4.000000
v -5.000000 1.000000 -4.000000
v -4.000000 1.000000 -5.000000
v -4.000000 1.000000 -3.000000
v -0.500000 5.000000 -5.000000
v -2.000000 1.000000 1.000000
v 0.500000 1.000000 -1.000000
v -1.000000 1.000000 -0.500000
v 1.000000 1.000000 0.500000
v -0.500000 1.000000 1.000000
v -2.000000 1.000000 -1.000000
v 0.500000 1.000000 -3.000000
v 1.000000 1.000000 -2.000000
v -1.000000 1.000000 -2.000000
v 0.500000 1.000000 -5.000000
v 1.000000 1.000000 -4.500000
v -1.000000 1.000000 -3.500000
v -3.000000 1.000000 -0.500000
v -3.000000 1.000000 -2.000000
v -3.000000 1.000000 -3.500000
v -2.000000 1.000000 -5.000000
v -2.000000 1.000000 -3.000000
v -5.000000 1.000000 -0.500000
v -5.000000 1.000000 -2.000000
v -5.000000 1.000000 -3.500000
v -4.500000 1.000000 -5.000000
v -3.500000 1.000000 -3.000000
v -3.500000 1.000000 -1.000000
v -3.500000 1.000000 1.000000
v -3.000000 1.000000 0.500000
v -5.000000 1.000000 0.500000
v -4.500000 1.000000 -1.000000
v -4.500000 1.000000 1.000000
v -0.500000 5.000000 0.000000
v -3.500000 1.000000 0.000000
v 0.000000 5.000000 -0.500000
v -4.000000 1.000000 -0.500000
v -0.500000 1.000000 -1.000000
v -1.000000 1.000000 0.500000
v 1.000000 1.000000 -0.500000
v 0.500000 1.000000 1.000000
v 0.000000 1.000000 -0.500000
v 0.500000 5.000000 1.000000
v -0.500000 1.000000 0.000000
v 1.000000 5.000000 -0.500000
v -0.500000 1.000000 -3.000000
v -0.500000 1.000000 -5.000000
v 1.000000 1.000000 -3.500000
v -1.000000 1.000000 -4.500000
v -4.000000 5.000000 -0.500000
v 0.000000 1.000000 -3.500000
v -0.500000 1.000000 -4.000000
v -3.500000 5.000000 0.000000
v -3.000000 1.000000 -4.500000
v -5.000000 1.000000 -4.500000
v -3.500000 1.000000 -5.000000
v -4.500000 1.000000 -3.000000
v -4.500000 5.000000 1.000000
v -3.500000 1.000000 -4.000000
v -4.000000 1.000000 -3.500000
v -5.000000 5.000000 0.500000
v -3.500000 1.000000 -4.500000
v -3.500000 1.000000 -3.500000
v -4.500000 1.000000 -3.500000
v 0.500000 1.000000 -3.500000
v -0.500000 1.000000 -3.500000
v -0.500000 1.000000 -4.500000
v -3.500000 5.000000 1.000000
v -0.500000 1.000000 0.500000
v -0.500000 1.000000 -0.500000
v -3.500000 1.000000 -0.500000
v -3.500000 1.000000 0.500000
v -4.500000 5.000000 -5.000000
v -4.500000 1.000000 -0.500000
v -2.000000 1.000000 -2.000000
v -5.000000 5.000000 -3.500000
v -5.000000 5.000000 -0.500000
v 0.500000 1.000000 -0.500000
v 1.000000 3.000000 1.000000
v 1.000000 3.000000 -5.000000
v -5.000000 3.000000 1.000000
v -5.000000 3.000000 -5.000000
v -5.000000 3.000000 0.000000
v -4.000000 3.000000 1.000000
v -4.000000 5.000000 1.000000
v 1.000000 3.000000 0.000000
v 0.000000 3.000000 1.000000
v -5.000000 5.000000 1.000000
v 0.000000 3.000000 -5.000000
v 1.000000 3.000000 -4.000000
v 1.000000 5.000000 0.500000
v -5.000000 3.000000 -4.000000
v -4.000000 3.000000 -5.000000
v 0.000000 5.000000 -5.000000
v 1.000000 3.000000 0.500000
v -0.500000 3.000000 1.000000
v 0.500000 3.000000 -5.000000
v 1.000000 3.000000 -4.500000
v -5.000000 3.000000 -0.500000
v -5.000000 3.000000 -3.500000
v -4.500000 3.000000 -5.000000
v -3.500000 3.000000 1.000000
v -5.000000 3.000000 0.500000
v -4.500000 3.000000 1.000000
v 0.000000 5.000000 1.000000
v -3.500000 3.000000 0.000000
v -5.000000 5.000000 0.000000
v -4.000000 3.000000 -0.500000
v 1.000000 3.000000 -0.500000
v 0.500000 3.000000 1.000000
v 0.000000 3.000000 -0.500000
v -5.000000 5.000000 -5.000000
v -0.500000 3.000000 0.000000
v 1.000000 5.000000 1.000000
v -0.500000 3.000000 -5.000000
v 1.000000 3.000000 -3.500000
v -0.500000 5.000000 1.000000
v 0.000000 3.000000 -3.500000
v -0.500000 3.000000 -4.000000
v 0.500000 5.000000 -5.000000
v -5.000000 3.000000 -4.500000
v -3.500000 3.000000 -5.000000
v 1.000000 5.000000 -4.000000
v -3.500000 3.000000 -4.000000
v -4.000000 3.000000 -3.500000
v -5.000000 5.000000 -4.000000
v -3.500000 3.000000 -4.500000
v -3.500000 3.000000 -3.500000
v -4.500000 3.000000 -3.500000
v 0.500000 3.000000 -3.500000
v -0.500000 3.000000 -3.500000
v -0.500000 3.000000 -4.500000
v 1.000000 5.000000 -5.000000
v -0.500000 3.000000 0.500000
v -0.500000 3.000000 -0.500000
v -3.500000 3.000000 -0.500000
v -3.500000 3.000000 0.500000
v 1.000000 5.000000 0.000000
v -4.500000 3.000000 -0.500000
v -4.000000 5.000000 -5.000000
v 1.000000 5.000000 -4.500000
v 0.500000 3.000000 -0.500000
v -5.000000 5.000000 -4.500000
v -3.500000 5.000000 -5.000000
v -3.500000 5.000000 -4.000000
v -4.000000 5.000000 -3.500000
v -3.500000 5.000000 -4.500000
v -3.500000 5.000000 -3.500000
v -4.500000 5.000000 -3.500000
v 0.500000 5.000000 -3.500000
v -0.500000 5.000000 -3.500000
v -0.500000 5.000000 -4.500000
v -0.500000 5.000000 0.500000
v -0.500000 5.000000 -0.500000
v -3.500000 5.000000 -0.500000
v -3.500000 5.000000 0.500000
v -4.500000 5.000000 -0.500000
v 0.500000 5.000000 -0.500000
vt 0.812500 0.687500
vt 0.875000 0.687500
vt 0.875000 0.750000
vt 0.812500 0.750000
vt 0.625000 0.000000
vt 0.375000 0.000000
vt 0.375000 0.000000
vt 0.625000 0.000000
vt 0.625000 0.000000
vt 0.625000 0.062500
vt 0.625000 0.125000
vt 0.625000 0.187500
vt 0.625000 0.250000
vt 0.375000 0.250000
vt 0.125000 0.500000
vt 0.375000 0.500000
vt 0.375000 0.750000
vt 0.125000 0.750000
vt 0.375000 0.750000
vt 0.375000 0.750000
vt 0.375000 0.750000
vt 0.375000 0.750000
vt 0.625000 0.312500
vt 0.625000 0.375000
vt 0.625000 0.437500
vt 0.625000 0.500000
vt 0.625000 1.000000
vt 0.625000 0.937500
vt 0.625000 0.937500
vt 0.625000 1.000000
vt 0.125000 0.750000
vt 0.625000 0.750000
vt 0.687500 0.750000
vt 0.750000 0.750000
vt 0.875000 0.750000
vt 0.875000 0.750000
vt 0.812500 0.750000
vt 0.750000 0.750000
vt 0.687500 0.750000
vt 0.625000 0.750000
vt 0.625000 0.750000
vt 0.375000 0.750000
vt 0.625000 0.750000
vt 0.625000 0.812500
vt 0.625000 0.875000
vt 0.375000 1.000000
vt 0.375000 0.000000
vt 0.625000 0.000000
vt 0.625000 0.000000
vt 0.625000 0.000000
vt 0.625000 0.000000
vt 0.125000 0.750000
vt 0.625000 0.562500
vt 0.625000 0.625000
vt 0.625000 0.687500
vt 0.625000 0.750000
vt 0.625000 0.750000
vt 0.625000 0.687500
vt 0.625000 0.625000
vt 0.625000 0.562500
vt 0.625000 0.500000
vt 0.625000 0.500000
vt 0.625000 0.750000
vt 0.625000 0.750000
vt 0.625000 0.750000
vt 0.625000 0.750000
vt 0.625000 0.750000
vt 0.625000 0.750000
vt 0.625000 0.750000
vt 0.625000 0.750000
vt 0.625000 0.750000
vt 0.625000 0.750000
vt 0.625000 0.750000
vt 0.625000 0.750000
vt 0.625000 0.750000
vt 0.625000 0.750000
vt 0.625000 0.750000
vt 0.375000 0.500000
vt 0.375000 0.500000
vt 0.375000 0.750000
vt 0.625000 0.750000
vt 0.625000 0.750000
vt 0.625000 0.750000
vt 0.625000 0.750000
vt 0.625000 0.750000
vt 0.625000 0.750000
vt 0.625000 0.750000
vt 0.625000 0.750000
vt 0.625000 0.750000
vt 0.625000 0.750000
vt 0.625000 0.500000
vt 0.625000 0.562500
vt 0.625000 0.625000
vt 0.625000 0.687500
vt 0.375000 0.750000
vt 0.625000 0.750000
vt 0.625000 0.750000
vt 0.625000 0.750000
vt 0.375000 0.750000
vt 0.625000 0.687500
vt 0.625000 0.500000
vt 0.625000 0.500000
vt 0.625000 0.500000
vt 0.625000 0.750000
vt 0.625000 0.750000
vt 0.625000 0.750000
vt 0.625000 0.687500
vt 0.625000 0.687500
vt 0.625000 0.000000
vt 0.625000 0.000000
vt 0.625000 0.687500
vt 0.625000 0.687500
vt 0.687500 0.687500
vt 0.750000 0.687500
vt 0.687500 0.750000
vt 0.687500 0.750000
vt 0.687500 0.750000
vt 0.687500 0.750000
vt 0.625000 0.500000
vt 0.625000 0.500000
vt 0.625000 0.750000
vt 0.625000 0.750000
vt 0.625000 0.750000
vt 0.625000 0.750000
vt 0.625000 0.562500
vt 0.625000 0.625000
vt 0.625000 0.875000
vt 0.687500 0.750000
vt 0.687500 0.750000
vt 0.625000 0.750000
vt 0.625000 0.750000
vt 0.687500 0.625000
vt 0.687500 0.625000
vt 0.687500 0.687500
vt 0.625000 0.250000
vt 0.625000 0.312500
vt 0.625000 0.750000
vt 0.625000 0.750000
vt 0.687500 0.750000
vt 0.750000 0.750000
vt 0.750000 0.750000
vt 0.687500 0.750000
vt 0.625000 0.750000
vt 0.625000 0.750000
vt 0.812500 0.750000
vt 0.875000 0.750000
vt 0.625000 0.750000
vt 0.625000 0.750000
vt 0.625000 0.750000
vt 0.625000 0.375000
vt 0.687500 0.562500
vt 0.687500 0.500000
vt 0.625000 0.750000
vt 0.625000 0.562500
vt 0.625000 0.625000
vt 0.625000 0.625000
vt 0.625000 0.562500
vt 0.625000 0.062500
vt 0.625000 0.125000
vt 0.687500 0.500000
vt 0.687500 0.562500
vt 0.625000 0.437500
vt 0.875000 0.750000
vt 0.812500 0.750000
vt 0.625000 0.187500
vt 0.812500 0.687500
vt 0.875000 0.687500
vt 0.750000 0.687500
vt 0.000000 0.000000
vt 0.000000 0.000000
vt 0.000000 0.000000
vt 0.000000 0.000000
vt 0.000000 0.000000
vt 0.000000 0.000000
vt 0.000000 0.000000
vt 0.000000 0.000000
vt 0.000000 0.000000
vt 0.000000 0.000000
vt 0.000000 0.000000
vt 0.000000 0.000000
vt 0.000000 0.000000
vt 0.000000 0.000000
vt 0.000000 0.000000
vt 0.000000 0.000000
vt 0.000000 0.000000
vt 0.000000 0.000000
vt 0.625000 0.625000
vt 0.625000 0.562500
vt 0.625000 0.500000
vt 0.625000 0.500000
vt 0.625000 0.500000
vt 0.625000 0.500000
vt 0.625000 0.562500
vt 0.625000 0.625000
vt 0.625000 0.687500
vt 0.625000 0.687500
vt 0.625000 0.687500
vt 0.625000 0.687500
vt 0.000000 0.000000
vt 0.000000 0.000000
vt 0.000000 0.000000
vt 0.000000 0.000000
vt 0.750000 0.750000
vt 0.687500 0.750000
vt 0.000000 0.000000
vt 0.000000 0.000000
vt 0.000000 0.000000
vt 0.000000 0.000000
vt 0.000000 0.000000
vt 0.000000 0.000000
vt 0.000000 0.000000
vt 0.000000 0.000000
vt 0.000000 0.000000
vt 0.000000 0.000000
vt 0.000000 0.000000
vt 0.000000 0.000000
vt 0.000000 0.000000
vt 0.000000 0.000000
vt 0.000000 0.000000
vt 0.000000 0.000000
vt 0.000000 0.000000
vt 0.000000 0.000000
vt 0.000000 0.000000
vt 0.000000 0.000000
vt 0.625000 0.000000
vt 0.625000 0.000000
vt 0.625000 0.000000
vt 0.625000 0.812500
vt 0.625000 0.812500
vt 0.625000 0.875000
vt 0.000000 0.000000
vt 0.000000 0.000000
vt 0.875000 0.750000
vt 0.875000 0.750000
vt 0.812500 0.750000
vt 0.750000 0.750000
vt 0.687500 0.750000
vt 0.687500 0.750000
vt 0.687500 0.750000
vt 0.812500 0.750000
vt 0.875000 0.750000
vt 0.875000 0.750000
vt 0.625000 0.750000
vt 0.625000 0.750000
vt 0.625000 0.750000
vt 0.625000 0.750000
vt 0.625000 0.750000
vt 0.625000 0.750000
vt 0.625000 0.750000
vt 0.625000 0.750000
vt 0.625000 0.750000
vt 0.625000 0.750000
vt 0.625000 0.750000
vt 0.625000 0.750000
vt 0.000000 0.000000
vt 0.000000 0.000000
vt 0.000000 0.000000
vt 0.000000 0.000000
vt 0.687500 0.625000
vt 0.687500 0.562500
vt 0.687500 0.500000
vt 0.750000 0.500000
vt 0.812500 0.500000
vt 0.875000 0.500000
vt 0.875000 0.562500
vt 0.875000 0.625000
vt 0.875000 0.687500
vt 0.812500 0.687500
vt 0.750000 0.687500
vt 0.687500 0.687500
vt 0.000000 0.000000
vt 0.000000 0.000000
vt 0.000000 0.000000
vt 0.000000 0.000000
vt 0.000000 0.000000
vt 0.000000 0.000000
vt 0.625000 0.250000
vt 0.625000 0.312500
vt 0.625000 0.375000
vt 0.625000 0.062500
vt 0.625000 0.125000
vt 0.000000 0.000000
vt 0.000000 0.000000
vt 0.000000 0.000000
vt 0.000000 0.000000
vt 0.625000 0.187500
vt 0.625000 0.000000
vt 0.625000 0.000000
vt 0.000000 0.000000
vt 0.000000 0.000000
vt 0.000000 0.000000
vt 0.000000 0.000000
vt 0.000000 0.000000
vt 0.000000 0.000000
vt 0.000000 0.000000
vt 0.000000 0.000000
vt 0.000000 0.000000
vt 0.000000 0.000000
vt 0.625000 0.687500
vt 0.625000 0.500000
vt 0.625000 0.687500
vt 0.625000 0.500000
vt 0.625000 0.000000
vt 0.000000 0.000000
vt 0.000000 0.000000
vt 0.000000 0.000000
vt 0.000000 0.000000
vt 0.000000 0.000000
vt 0.000000 0.000000
vt 0.000000 0.000000
vt 0.000000 0.000000
vt 0.000000 0.000000
vt 0.000000 0.000000
vt 0.000000 0.000000
vt 0.000000 0.000000
vt 0.000000 0.000000
vt 0.000000 0.000000
vt 0.000000 0.000000
vt 0.000000 0.000000
vt 0.625000 0.437500
vt 0.000000 0.000000
vt 0.000000 0.000000
vt 0.625000 0.937500
vt 0.000000 0.000000
vt 0.625000 1.000000
vt 0.000000 0.000000
vt 0.000000 0.000000
vt 0.000000 0.000000
vt 0.000000 0.000000
vt 0.000000 0.000000
vt 0.000000 0.000000
vt 0.000000 0.000000
vt 0.000000 0.000000
vt 0.000000 0.000000
vn 0.0000 1.0000 0.0000
vn 1.0000 0.0000 0.0000
vn 0.0000 -1.0000 0.0000
vn 0.0000 0.0000 1.0000
vn 0.0000 0.0000 -1.0000
vn -1.0000 0.0000 0.0000
vn 0.8321 0.0000 -0.5547
vn -0.7071 0.0000 0.7071
vn 0.8944 0.0000 -0.4472
vn 0.7071 0.0000 0.7071
vn -0.7071 0.0000 -0.7071
vn -0.8944 0.0000 -0.4472
vn 0.7071 0.0000 -0.7071
vn -0.4472 0.0000 0.8944
vn 0.4472 0.0000 0.8944
vn -0.4472 0.0000 -0.8944
vn 0.5547 0.0000 0.8321
vn 0.5547 0.0000 -0.8321
vn -0.8944 0.0000 0.4472
vn 0.4472 0.0000 -0.8944
vn 0.8321 0.0000 0.5547
vn 0.8944 0.0000 0.4472
usemtl Material
s off
f 125/1/1 87/2/1 7/3/1 54/4/1
f 7/5/2 8/6/2 12/7/2 11/8/2 60/9/2
f 8/6/2 7/5/2 87/10/2 40/11/2 56/12/2 5/13/2 6/14/2
f 6/15/3 2/16/3 4/17/3 8/18/3
f 14/19/3 10/20/3 22/21/3 24/22/3
f 6/14/4 5/13/4 88/23/4 41/24/4 57/25/4 1/26/4 2/16/4
f 15/27/5 62/28/5 144/29/5 127/30/5
f 8/18/3 4/17/3 10/20/3 12/31/3
f 3/32/1 85/33/1 38/34/1 54/4/1 7/3/1 60/35/1 11/36/1 59/37/1 43/38/1 93/39/1 9/40/1 61/41/1
f 10/20/3 4/17/3 20/42/3 22/21/3
f 14/19/5 13/43/5 94/44/5 44/45/5 62/28/5 15/27/5 16/46/5
f 11/8/2 12/7/2 16/47/2 15/48/2 63/49/2 45/50/2 95/51/2
f 12/31/3 10/20/3 14/19/3 16/52/3
f 1/26/1 86/53/1 39/54/1 55/55/1 3/32/1 58/56/1 19/57/1 65/58/1 33/59/1 77/60/1 17/61/1 53/62/1
f 19/57/1 66/63/1 21/64/1 74/65/1 51/66/1 104/67/1 29/68/1 71/69/1 27/70/1 79/71/1 35/72/1 75/73/1
f 72/74/4 111/75/4 176/76/4 147/77/4
f 20/42/3 18/78/3 26/79/3 28/80/3
f 9/40/1 64/81/1 46/82/1 96/83/1 13/43/1 68/84/1 23/85/1 101/86/1 48/87/1 67/88/1 21/64/1 69/89/1
f 13/43/5 14/19/5 24/22/5 23/85/5 68/84/5
f 122/90/1 69/89/1 21/64/1 66/63/1
f 2/16/4 1/26/4 53/62/4 17/61/4 18/78/4
f 4/17/3 2/16/3 18/78/3 20/42/3
f 26/79/6 25/91/6 78/92/6 34/93/6 70/94/6 27/70/6 28/80/6
f 28/80/6 27/70/6 71/69/6 29/68/6 30/95/6
f 30/95/6 29/68/6 72/74/6 49/96/6 102/97/6 31/98/6 32/99/6
f 121/100/1 79/71/1 27/70/1 70/94/1
f 18/78/4 17/61/4 76/101/4 36/102/4 80/103/4 25/91/4 26/79/4
f 24/22/3 22/21/3 30/95/3 32/99/3
f 23/85/5 24/22/5 32/99/5 31/98/5 73/104/5 50/105/5 103/106/5
f 22/21/3 20/42/3 28/80/3 30/95/3
f 121/100/5 70/94/5 146/107/5 186/108/5
f 45/50/2 63/49/2 145/109/2 137/110/2
f 118/111/1 75/73/1 35/72/1 84/112/1
f 117/113/1 89/114/1 38/34/1 85/33/1
f 114/115/6 99/116/6 166/117/6 179/118/6
f 36/102/4 76/101/4 149/119/4 131/120/4
f 110/121/2 106/122/2 171/123/2 175/124/2
f 34/93/6 78/92/6 150/125/6 130/126/6
f 62/28/5 44/45/5 136/127/5 144/29/5
f 94/128/6 114/115/6 179/118/6 162/129/6
f 31/98/6 102/97/6 168/130/6 129/131/6
f 117/113/6 91/132/6 160/133/6 182/134/6
f 88/23/4 5/13/4 126/135/4 157/136/4
f 48/87/1 101/86/1 109/137/1 106/122/1
f 101/86/1 23/85/1 103/106/1 109/137/1
f 74/65/1 110/121/1 107/138/1 51/66/1
f 21/64/1 67/88/1 110/121/1 74/65/1
f 67/88/1 48/87/1 106/122/1 110/121/1
f 104/67/1 111/75/1 72/74/1 29/68/1
f 51/66/1 107/138/1 111/75/1 104/67/1
f 113/139/4 98/140/4 165/141/4 178/142/4
f 103/106/5 50/105/5 140/143/5 169/144/5
f 43/38/1 59/37/1 112/145/1 98/140/1
f 59/37/1 11/36/1 95/146/1 112/145/1
f 64/81/1 113/139/1 99/116/1 46/82/1
f 9/40/1 93/39/1 113/139/1 64/81/1
f 93/39/1 43/38/1 98/140/1 113/139/1
f 96/83/1 114/115/1 94/128/1 13/43/1
f 46/82/1 99/116/1 114/115/1 96/83/1
f 50/105/5 73/104/5 148/147/5 140/143/5
f 102/97/6 49/96/6 139/148/6 168/130/6
f 107/138/4 110/121/4 175/124/4 172/149/4
f 41/24/4 88/23/4 157/136/4 134/150/4
f 86/53/1 116/151/1 91/132/1 39/54/1
f 1/26/1 57/152/1 116/151/1 86/53/1
f 49/96/6 72/74/6 147/77/6 139/148/6
f 55/55/1 117/113/1 85/33/1 3/32/1
f 39/54/1 91/132/1 117/113/1 55/55/1
f 109/137/2 103/106/2 169/144/2 174/153/2
f 119/154/2 82/155/2 153/156/2 184/157/2
f 33/59/1 65/58/1 118/111/1 82/155/1
f 65/58/1 19/57/1 75/73/1 118/111/1
f 99/116/6 113/139/6 178/142/6 166/117/6
f 17/61/1 77/60/1 119/154/1 76/101/1
f 77/60/1 33/59/1 82/155/1 119/154/1
f 40/11/2 87/10/2 156/158/2 133/159/2
f 116/151/6 57/152/6 143/160/6 181/161/6
f 106/122/2 109/137/2 174/153/2 171/123/2
f 76/101/2 119/154/2 184/157/2 149/119/2
f 57/25/4 41/24/4 134/150/4 143/162/4
f 84/112/1 35/72/1 79/71/1 121/100/1
f 58/56/1 122/90/1 66/63/1 19/57/1
f 3/32/1 61/41/1 122/90/1 58/56/1
f 61/41/1 9/40/1 69/89/1 122/90/1
f 112/145/4 95/146/4 163/163/4 177/164/4
f 70/94/6 34/93/6 130/126/6 146/107/6
f 91/132/6 116/151/6 181/161/6 160/133/6
f 56/12/2 40/11/2 133/159/2 142/165/2
f 98/140/4 112/145/4 177/164/4 165/141/4
f 87/2/5 125/1/5 189/166/5 156/167/5
f 89/114/1 125/1/1 54/4/1 38/34/1
f 73/104/5 31/98/5 129/131/5 148/147/5
f 125/1/5 89/114/5 158/168/5 189/166/5
f 157/169/7 182/170/7 201/171/7 90/172/7
f 182/170/8 126/173/8 161/174/8 201/171/8
f 134/175/9 160/176/9 81/177/9 152/178/9
f 177/179/10 137/180/10 170/181/10 197/182/10
f 156/183/2 163/184/2 47/185/2 92/186/2
f 154/187/1 108/188/1 135/189/1 105/190/1 132/191/1 115/192/1 203/193/1 100/194/1 202/195/1 97/196/1 204/197/1 124/198/1
f 183/199/11 128/200/11 135/201/11 202/202/11
f 178/142/4 165/141/4 42/203/4 198/204/4
f 153/205/12 131/206/12 132/207/12 100/208/12
f 142/209/13 158/210/13 83/211/13 138/212/13
f 155/213/11 150/214/11 108/215/11 97/216/11
f 158/210/14 133/217/14 185/218/14 83/211/14
f 131/206/10 184/219/10 203/220/10 132/207/10
f 149/221/4 143/222/4 164/223/4 115/224/4
f 163/225/2 137/110/2 170/226/2 47/227/2
f 136/127/5 162/228/5 52/229/5 141/230/5
f 130/231/15 155/213/15 97/216/15 154/232/15
f 188/233/1 180/234/1 167/235/1 141/236/1 52/237/1 199/238/1 37/239/1 198/204/1 42/203/1 197/240/1 47/241/1 170/242/1
f 120/243/1 159/244/1 190/245/1 173/246/1 123/247/1 196/248/1 193/249/1 195/250/1 192/251/1 194/252/1 191/253/1 187/254/1
f 162/255/5 169/256/5 191/257/5 52/258/5
f 81/259/1 200/260/1 164/261/1 152/262/1 90/263/1 161/264/1 138/265/1 185/266/1 92/267/1 205/268/1 83/269/1 201/270/1
f 137/180/16 165/271/16 42/272/16 170/181/16
f 165/271/10 145/273/10 188/274/10 42/272/10
f 179/118/6 166/117/6 37/239/6 199/238/6
f 186/275/11 130/231/11 154/232/11 204/276/11
f 157/136/4 126/135/4 161/277/4 90/278/4
f 134/150/4 157/136/4 90/278/4 152/279/4
f 133/159/2 156/158/2 92/280/2 185/281/2
f 151/282/10 153/205/10 100/208/10 105/283/10
f 181/284/8 134/175/8 152/178/8 200/285/8
f 160/176/8 157/169/8 90/172/8 81/177/8
f 129/131/6 168/130/6 190/245/6 159/244/6
f 189/166/5 158/168/5 83/269/5 205/268/5
f 160/133/6 181/161/6 200/260/6 81/259/6
f 202/202/1 135/189/1 105/190/1 100/208/1 132/207/1 203/193/1 115/192/1 164/261/1 200/260/1 152/178/1 81/177/1 90/172/1 201/171/1 161/277/1 138/286/1 83/211/1 185/218/1 205/268/1 92/267/1 47/241/1 197/240/1 170/181/1 42/272/1 188/287/1 180/288/1 198/289/1 167/290/1 37/291/1 141/292/1 199/238/1 52/237/1 191/253/1 194/252/1 187/293/1 192/294/1 120/243/1 159/244/1 195/295/1 190/296/1 193/297/1 173/298/1 196/248/1 123/247/1 124/198/1 204/197/1 154/232/1 97/216/1 108/215/1
f 166/117/6 178/142/6 198/204/6 37/239/6
f 89/114/5 117/113/5 182/134/5 158/168/5
f 5/13/2 56/12/2 142/165/2 126/135/2
f 84/112/5 121/100/5 186/108/5 155/299/5
f 80/103/4 36/102/4 131/120/4 151/300/4
f 111/75/4 107/138/4 172/149/4 176/76/4
f 118/111/5 84/112/5 155/299/5 183/301/5
f 78/92/6 25/91/6 128/302/6 150/125/6
f 44/45/5 94/44/5 162/228/5 136/127/5
f 63/49/2 15/48/2 127/303/2 145/109/2
f 95/51/2 45/50/2 137/110/2 163/225/2
f 82/155/2 118/111/2 183/301/2 153/156/2
f 25/91/4 80/103/4 151/300/4 128/302/4
f 150/214/17 183/199/17 202/202/17 108/215/17
f 182/134/6 160/133/6 81/259/6 201/270/6
f 175/304/18 168/305/18 190/296/18 195/295/18
f 168/130/6 139/148/6 173/246/6 190/245/6
f 158/168/5 182/134/5 201/270/5 83/269/5
f 140/306/19 171/307/19 192/294/19 187/293/19
f 169/144/5 140/143/5 187/254/5 191/253/5
f 183/301/5 155/299/5 97/196/5 202/195/5
f 139/308/8 176/309/8 196/310/8 173/298/8
f 168/305/8 172/311/8 193/297/8 190/296/8
f 153/156/2 183/301/2 202/195/2 100/194/2
f 172/311/20 139/308/20 173/298/20 193/297/20
f 171/307/13 148/312/13 120/313/13 192/294/13
f 133/217/13 189/314/13 205/315/13 185/218/13
f 171/123/2 174/153/2 194/252/2 192/251/2
f 147/316/6 146/317/6 124/318/6 123/319/6
f 142/165/2 133/159/2 185/281/2 138/286/2
f 184/157/2 153/156/2 100/194/2 203/193/2
f 172/149/4 175/124/4 195/250/4 193/249/4
f 143/162/4 134/150/4 152/279/4 164/320/4
f 144/321/11 166/322/11 37/291/11 167/290/11
f 175/124/2 171/123/2 192/251/2 195/250/2
f 144/29/5 136/127/5 141/230/5 167/323/5
f 178/324/21 144/321/21 167/290/21 198/289/21
f 137/110/2 145/109/2 188/287/2 170/226/2
f 127/30/5 144/29/5 167/323/5 180/325/5
f 127/326/11 178/324/11 198/289/11 180/327/11
f 176/76/4 172/149/4 193/249/4 196/248/4
f 146/107/6 130/126/6 154/187/6 124/198/6
f 136/328/11 179/329/11 199/330/11 141/292/11
f 129/331/8 175/304/8 195/295/8 159/332/8
f 139/148/6 147/77/6 123/247/6 173/246/6
f 140/143/5 148/147/5 120/243/5 187/254/5
f 130/126/6 150/125/6 108/188/6 154/187/6
f 155/299/5 186/108/5 204/197/5 97/196/5
f 165/141/4 177/164/4 197/240/4 42/203/4
f 131/120/4 149/119/4 115/192/4 132/191/4
f 151/300/4 131/120/4 132/191/4 105/190/4
f 166/322/22 136/328/22 141/292/22 37/291/22
f 150/125/6 128/302/6 135/189/6 108/188/6
f 174/333/13 140/306/13 187/293/13 194/334/13
f 188/274/2 145/273/2 127/326/2 180/327/2
f 142/209/2 138/212/2 161/174/2 126/173/2
f 135/201/4 128/200/4 151/282/4 105/283/4
f 120/313/5 148/312/5 129/331/5 159/332/5
