# Blender 3.2.0 Alpha
# www.blender.org
mtllib hollow_ground.mtl
o ground cube
v -1.500000 -1.500000 1.500000
v -1.000000 -1.000000 1.000000
v -1.500000 1.500000 1.500000
v -1.000000 1.000000 1.000000
v -1.500000 -1.500000 -1.500000
v -1.000000 -1.000000 -1.000000
v -1.500000 1.500000 -1.500000
v -1.000000 1.000000 -1.000000
v 1.500000 -1.500000 1.500000
v 1.000000 -1.000000 1.000000
v 1.000000 1.000000 1.000000
v 1.500000 1.500000 1.500000
v 1.500000 -1.500000 -1.500000
v 1.000000 -1.000000 -1.000000
v 1.000000 1.000000 -1.000000
v 1.500000 1.500000 -1.500000
v -1.500000 -1.000000 1.000000
v -1.500000 1.000000 -1.000000
v -1.500000 1.000000 1.000000
v -1.500000 -1.000000 -1.000000
v -1.000000 -1.000000 -1.500000
v 1.000000 1.000000 -1.500000
v -1.000000 1.000000 -1.500000
v 1.000000 -1.000000 -1.500000
v 1.500000 -1.000000 -1.000000
v 1.500000 1.000000 1.000000
v 1.500000 1.000000 -1.000000
v 1.500000 -1.000000 1.000000
v 1.000000 -1.000000 1.500000
v -1.000000 1.000000 1.500000
v 1.000000 1.000000 1.500000
v -1.000000 -1.000000 1.500000
v 1.000000 -1.500000 1.000000
v -1.000000 -1.500000 -1.000000
v 1.000000 -1.500000 -1.000000
v -1.000000 -1.500000 1.000000
v -1.000000 1.500000 1.000000
v 1.000000 1.500000 -1.000000
v -1.000000 1.500000 -1.000000
v 1.000000 1.500000 1.000000
vn -1.0000 -0.0000 -0.0000
vn -0.0000 -0.0000 -1.0000
vn 1.0000 -0.0000 -0.0000
vn -0.0000 -0.0000 1.0000
vn -0.0000 -1.0000 -0.0000
vn -0.0000 1.0000 -0.0000
vt 0.375000 0.000000
vt 0.375000 1.000000
vt 0.125000 0.750000
vt 0.375000 1.000000
vt 0.125000 0.750000
vt 0.625000 0.000000
vt 0.625000 1.000000
vt 0.875000 0.750000
vt 0.875000 0.750000
vt 0.625000 1.000000
vt 0.375000 0.250000
vt 0.125000 0.500000
vt 0.375000 0.250000
vt 0.125000 0.500000
vt 0.625000 0.250000
vt 0.875000 0.500000
vt 0.875000 0.500000
vt 0.625000 0.250000
vt 0.375000 0.750000
vt 0.375000 0.750000
vt 0.625000 0.750000
vt 0.625000 0.750000
vt 0.375000 0.500000
vt 0.375000 0.500000
vt 0.625000 0.500000
vt 0.625000 0.500000
vt 0.416667 0.041667
vt 0.375000 1.000000
vt 0.125000 0.750000
vt 0.583333 0.208333
vt 0.625000 0.250000
vt 0.875000 0.500000
vt 0.583333 0.041667
vt 0.625000 1.000000
vt 0.875000 0.750000
vt 0.416667 0.208333
vt 0.375000 0.250000
vt 0.125000 0.500000
vt 0.125000 0.500000
vt 0.416667 0.291667
vt 0.375000 0.250000
vt 0.583333 0.458333
vt 0.625000 0.500000
vt 0.583333 0.291667
vt 0.625000 0.250000
vt 0.416667 0.458333
vt 0.375000 0.500000
vt 0.416667 0.541667
vt 0.375000 0.500000
vt 0.583333 0.708333
vt 0.625000 0.750000
vt 0.583333 0.541667
vt 0.625000 0.500000
vt 0.416667 0.708333
vt 0.375000 0.750000
vt 0.416667 0.791667
vt 0.375000 0.750000
vt 0.583333 0.958333
vt 0.625000 1.000000
vt 0.583333 0.791667
vt 0.625000 0.750000
vt 0.416667 0.958333
vt 0.375000 1.000000
vt 0.125000 0.750000
vt 0.333333 0.708333
vt 0.375000 0.750000
vt 0.166667 0.541667
vt 0.125000 0.500000
vt 0.333333 0.541667
vt 0.375000 0.500000
vt 0.166667 0.708333
vt 0.125000 0.750000
vt 0.875000 0.750000
vt 0.833333 0.708333
vt 0.625000 1.000000
vt 0.666667 0.541667
vt 0.625000 0.500000
vt 0.625000 0.250000
vt 0.833333 0.541667
vt 0.875000 0.500000
vt 0.666667 0.708333
vt 0.625000 0.750000
s 0
usemtl Material.001
f 7/15/1 20/36/1 18/30/1
f 1/1/1 19/33/1 17/27/1
f 16/26/2 24/46/2 22/42/2
f 5/11/2 23/44/2 21/40/2
f 16/26/3 12/22/3 27/52/3
f 9/19/3 25/48/3 28/54/3
f 12/22/4 3/7/4 31/60/4
f 1/2/4 29/56/4 32/62/4
f 5/12/5 13/23/5 34/67/5
f 1/3/5 33/65/5 9/19/5
f 3/8/6 40/81/6 37/74/6
f 16/26/6 39/79/6 38/76/6
f 8/18/4 20/37/4 6/13/4
f 6/14/6 24/47/6 21/39/6
f 10/20/2 26/51/2 28/55/2
f 4/10/5 31/61/5 30/59/5
f 14/24/4 34/68/4 35/70/4
f 4/9/3 39/80/3 37/73/3
f 2/4/2 19/34/2 4/10/2
f 4/9/5 18/32/5 8/17/5
f 6/14/6 17/29/6 2/5/6
f 4/10/2 40/82/2 11/21/2
f 8/18/4 38/77/4 39/78/4
f 11/21/1 38/77/1 15/25/1
f 8/18/5 22/43/5 15/25/5
f 8/18/3 21/41/3 23/45/3
f 14/24/1 22/43/1 24/47/1
f 14/24/6 28/55/6 25/49/6
f 11/21/5 27/53/5 26/51/5
f 15/25/4 25/49/4 27/53/4
f 10/20/1 31/61/1 11/21/1
f 4/10/3 32/63/3 2/4/3
f 10/20/6 32/64/6 29/57/6
f 6/14/3 36/72/3 34/68/3
f 10/20/1 35/70/1 33/66/1
f 2/5/2 33/66/2 36/72/2
f 18/30/1 19/33/1 3/6/1
f 7/15/1 5/11/1 20/36/1
f 18/30/1 3/6/1 7/15/1
f 17/27/1 20/36/1 5/11/1
f 1/1/1 3/6/1 19/33/1
f 17/27/1 5/11/1 1/1/1
f 22/42/2 23/44/2 7/15/2
f 16/26/2 13/23/2 24/46/2
f 22/42/2 7/15/2 16/26/2
f 21/40/2 24/46/2 13/23/2
f 5/11/2 7/15/2 23/44/2
f 21/40/2 13/23/2 5/11/2
f 25/48/3 13/23/3 16/26/3
f 12/22/3 9/19/3 28/54/3
f 12/22/3 28/54/3 26/50/3
f 27/52/3 25/48/3 16/26/3
f 12/22/3 26/50/3 27/52/3
f 9/19/3 13/23/3 25/48/3
f 29/56/4 9/19/4 12/22/4
f 3/7/4 1/2/4 32/62/4
f 3/7/4 32/62/4 30/58/4
f 31/60/4 29/56/4 12/22/4
f 3/7/4 30/58/4 31/60/4
f 1/2/4 9/19/4 29/56/4
f 34/67/5 36/71/5 1/3/5
f 13/23/5 9/19/5 33/65/5
f 13/23/5 33/65/5 35/69/5
f 34/67/5 1/3/5 5/12/5
f 13/23/5 35/69/5 34/67/5
f 1/3/5 36/71/5 33/65/5
f 39/79/6 7/16/6 3/8/6
f 3/8/6 12/22/6 40/81/6
f 37/74/6 39/79/6 3/8/6
f 40/81/6 12/22/6 16/26/6
f 16/26/6 7/16/6 39/79/6
f 38/76/6 40/81/6 16/26/6
f 8/18/4 18/31/4 20/37/4
f 6/14/6 14/24/6 24/47/6
f 10/20/2 11/21/2 26/51/2
f 4/10/5 11/21/5 31/61/5
f 14/24/4 6/14/4 34/68/4
f 4/9/3 8/17/3 39/80/3
f 2/4/2 17/28/2 19/34/2
f 4/9/5 19/35/5 18/32/5
f 6/14/6 20/38/6 17/29/6
f 4/10/2 37/75/2 40/82/2
f 8/18/4 15/25/4 38/77/4
f 11/21/1 40/82/1 38/77/1
f 8/18/5 23/45/5 22/43/5
f 8/18/3 6/13/3 21/41/3
f 14/24/1 15/25/1 22/43/1
f 14/24/6 10/20/6 28/55/6
f 11/21/5 15/25/5 27/53/5
f 15/25/4 14/24/4 25/49/4
f 10/20/1 29/57/1 31/61/1
f 4/10/3 30/59/3 32/63/3
f 10/20/6 2/5/6 32/64/6
f 6/14/3 2/5/3 36/72/3
f 10/20/1 14/24/1 35/70/1
f 2/5/2 10/20/2 33/66/2
