{
    "asset" : {
        "generator" : "Khronos glTF Blender I/O v3.3.3",
        "version" : "2.0"
    },
    "scene" : 0,
    "scenes" : [
        {
            "name" : "Scene",
            "nodes" : [
                0
            ]
        }
    ],
    "nodes" : [
        {
            "mesh" : 0,
            "name" : "pie"
        }
    ],
    "materials" : [
        {
            "doubleSided" : true,
            "name" : "Material.002",
            "pbrMetallicRoughness" : {
                "baseColorFactor" : [
                    0.10653515160083771,
                    0.04223106428980827,
                    0.006782605312764645,
                    1
                ],
                "metallicFactor" : 0.7795275449752808,
                "roughnessFactor" : 0.38976380228996277
            }
        },
        {
            "doubleSided" : true,
            "name" : "Material.001",
            "pbrMetallicRoughness" : {
                "baseColorFactor" : [
                    0.17886191606521606,
                    0.17886191606521606,
                    0.17886191606521606,
                    1
                ],
                "metallicFactor" : 0,
                "roughnessFactor" : 0.9015747904777527
            }
        },
        {
            "doubleSided" : true,
            "name" : "Material.003",
            "pbrMetallicRoughness" : {
                "baseColorFactor" : [
                    0.2738315463066101,
                    0.2738315463066101,
                    0.2738315463066101,
                    1
                ],
                "metallicFactor" : 0.8976377844810486,
                "roughnessFactor" : 0.6338582634925842
            }
        }
    ],
    "meshes" : [
        {
            "name" : "Cylinder.003",
            "primitives" : [
                {
                    "attributes" : {
                        "POSITION" : 0,
                        "NORMAL" : 1,
                        "TEXCOORD_0" : 2
                    },
                    "indices" : 3,
                    "material" : 0
                },
                {
                    "attributes" : {
                        "POSITION" : 4,
                        "NORMAL" : 5,
                        "TEXCOORD_0" : 6
                    },
                    "indices" : 7,
                    "material" : 1
                },
                {
                    "attributes" : {
                        "POSITION" : 8,
                        "NORMAL" : 9,
                        "TEXCOORD_0" : 10
                    },
                    "indices" : 11,
                    "material" : 2
                }
            ]
        }
    ],
    "accessors" : [
        {
            "bufferView" : 0,
            "componentType" : 5126,
            "count" : 290,
            "max" : [
                1.5,
                1.5,
                0.625
            ],
            "min" : [
                -1.5,
                -1.5,
                -0.625
            ],
            "type" : "VEC3"
        },
        {
            "bufferView" : 1,
            "componentType" : 5126,
            "count" : 290,
            "type" : "VEC3"
        },
        {
            "bufferView" : 2,
            "componentType" : 5126,
            "count" : 290,
            "type" : "VEC2"
        },
        {
            "bufferView" : 3,
            "componentType" : 5123,
            "count" : 768,
            "type" : "SCALAR"
        },
        {
            "bufferView" : 4,
            "componentType" : 5126,
            "count" : 128,
            "max" : [
                1.5,
                1.5,
                1.5
            ],
            "min" : [
                -1.5,
                -1.5,
                -1.5
            ],
            "type" : "VEC3"
        },
        {
            "bufferView" : 5,
            "componentType" : 5126,
            "count" : 128,
            "type" : "VEC3"
        },
        {
            "bufferView" : 6,
            "componentType" : 5126,
            "count" : 128,
            "type" : "VEC2"
        },
        {
            "bufferView" : 7,
            "componentType" : 5123,
            "count" : 288,
            "type" : "SCALAR"
        },
        {
            "bufferView" : 8,
            "componentType" : 5126,
            "count" : 446,
            "max" : [
                0.5927011370658875,
                1.4952424764633179,
                0.5877230167388916
            ],
            "min" : [
                -0.564887285232544,
                -1.4952424764633179,
                -0.5877230763435364
            ],
            "type" : "VEC3"
        },
        {
            "bufferView" : 9,
            "componentType" : 5126,
            "count" : 446,
            "type" : "VEC3"
        },
        {
            "bufferView" : 10,
            "componentType" : 5126,
            "count" : 446,
            "type" : "VEC2"
        },
        {
            "bufferView" : 11,
            "componentType" : 5123,
            "count" : 486,
            "type" : "SCALAR"
        }
    ],
    "bufferViews" : [
        {
            "buffer" : 0,
            "byteLength" : 3480,
            "byteOffset" : 0
        },
        {
            "buffer" : 0,
            "byteLength" : 3480,
            "byteOffset" : 3480
        },
        {
            "buffer" : 0,
            "byteLength" : 2320,
            "byteOffset" : 6960
        },
        {
            "buffer" : 0,
            "byteLength" : 1536,
            "byteOffset" : 9280
        },
        {
            "buffer" : 0,
            "byteLength" : 1536,
            "byteOffset" : 10816
        },
        {
            "buffer" : 0,
            "byteLength" : 1536,
            "byteOffset" : 12352
        },
        {
            "buffer" : 0,
            "byteLength" : 1024,
            "byteOffset" : 13888
        },
        {
            "buffer" : 0,
            "byteLength" : 576,
            "byteOffset" : 14912
        },
        {
            "buffer" : 0,
            "byteLength" : 5352,
            "byteOffset" : 15488
        },
        {
            "buffer" : 0,
            "byteLength" : 5352,
            "byteOffset" : 20840
        },
        {
            "buffer" : 0,
            "byteLength" : 3568,
            "byteOffset" : 26192
        },
        {
            "buffer" : 0,
            "byteLength" : 972,
            "byteOffset" : 29760
        }
    ],
    "buffers" : [
        {
            "byteLength" : 30732,
            "uri" : "data:application/octet-stream;base64,"
        }
    ]
}
